<?xml version="1.0" encoding="UTF-8"?>
<!DOCTYPE svg PUBLIC "-//W3C//DTD SVG 1.1//EN" "http://www.w3.org/Graphics/SVG/1.1/DTD/svg11.dtd">
<!-- Creator: CorelDRAW X7.4 EN Portable -->
<svg xmlns="http://www.w3.org/2000/svg" xml:space="preserve" width="7.11111in" height="7.11111in" version="1.1" style="shape-rendering:geometricPrecision; text-rendering:geometricPrecision; image-rendering:optimizeQuality; fill-rule:evenodd; clip-rule:evenodd"
viewBox="0 0 7111 7111"
 xmlns:xlink="http://www.w3.org/1999/xlink">
 <defs>
  <style type="text/css">
   <![CDATA[
    .fil13 {fill:#111122}
    .fil15 {fill:#2A2B2C}
    .fil5 {fill:#35C6DE}
    .fil7 {fill:#44A5F9}
    .fil14 {fill:#4BD4DA}
    .fil9 {fill:#513DC5}
    .fil17 {fill:#6EBCB1}
    .fil6 {fill:#756AD2}
    .fil10 {fill:#7DD7DE}
    .fil8 {fill:#85D5F2}
    .fil0 {fill:#86AAF2}
    .fil1 {fill:#86AAF2}
    .fil4 {fill:#A1D1F8}
    .fil11 {fill:#A9DA9B}
    .fil2 {fill:#B2F0EA}
    .fil3 {fill:#ECFCFD}
    .fil12 {fill:#F6AB69}
    .fil16 {fill:#FAF0E7}
   ]]>
  </style>
 </defs>
 <g id="Layer_x0020_1">
  <metadata id="CorelCorpID_0Corel-Layer"/>
  <path class="fil0" d="M2724 2063c-17,25 -16,127 -18,165 -2,57 -8,114 -8,172 4,130 24,277 20,403 -1,19 3,75 8,98l18 300c6,135 15,269 23,403 8,133 20,272 23,406l14 229c-5,0 -15,-1 -19,0 -12,2 -8,0 -15,7 -1,13 -7,65 -11,74 -4,8 -34,38 -42,45 -21,21 -73,65 -87,85l102 2 1 386 -135 0c-5,-60 -1,-132 -1,-193 0,-34 7,-171 -5,-193l-209 0 210 2 0 385 -70 0 1 371c24,6 249,6 268,-1 -52,-287 59,-777 173,-1009 64,-130 148,-252 276,-325 136,-77 337,-95 504,-42 -8,-12 -4,-12 7,-42 6,-16 10,-26 16,-42 10,-29 20,-58 31,-87 21,-58 41,-114 63,-174 10,-29 20,-56 31,-87 36,-98 10,-66 102,-136 21,-16 49,-36 66,-52l-163 1c-16,-39 -28,-68 -8,-114 39,-91 138,-105 233,-195 91,-87 54,-289 122,-445 59,-134 149,-218 301,-267 115,-37 251,-31 346,40 16,12 65,56 71,69 -37,-80 -105,-239 -140,-305 -113,-210 -241,-339 -470,-428 -124,-48 -235,-61 -390,-55 -74,3 -135,-6 -211,5 -64,9 -124,26 -178,47 -105,41 -203,101 -288,161 -133,95 -324,244 -476,311 -12,5 -76,30 -80,34 -14,-9 -2,4 -6,-9z"/>
  <path class="fil1" d="M3793 3837l9 7c20,9 204,24 344,152 84,77 150,172 186,324 58,245 11,542 -53,788 -8,28 -25,76 -28,101 80,4 170,1 251,1l736 0c18,-3 7,2 15,-6l-36 -186c-29,-5 -716,144 -749,139l-70 -358c-4,-26 27,-82 37,-105 88,-196 172,-403 260,-599 18,-40 254,-594 261,-601 9,-7 353,-70 421,-83 56,-11 39,-13 53,0l0 -10 131 -25c13,26 47,236 56,283l110 566c8,40 58,266 50,286l71 -13 8 10c-2,-19 0,-5 3,-11l130 -26 74 380 -132 25 -7 -7c1,14 1,9 -15,13 -8,2 -20,3 -28,5 -14,3 -42,2 -51,12l27 -5 61 315 492 0 379 0c9,-107 28,-166 -34,-281 -123,-228 -401,-273 -470,-554 -52,-213 -9,-417 -15,-641 -3,-116 -19,-196 -50,-292 -20,-59 -80,-184 -116,-223l-1492 -2c-58,136 28,145 81,222 81,119 14,155 -10,257 -23,101 104,140 44,273 -22,49 -44,69 -76,97 -14,12 -84,61 -107,68 4,-20 25,-37 33,-63 29,-105 -185,-137 -180,-280 3,-54 35,-100 36,-151 3,-109 -155,-69 -198,-174 -21,-51 12,-110 16,-160 4,-52 -32,-111 -73,-115 -14,8 -23,18 -36,29 -30,23 -170,126 -178,144l-104 285c-22,63 -48,126 -67,189z"/>
  <path class="fil2" d="M1299 5427c12,8 333,28 345,28 157,12 509,42 641,107 44,21 86,57 43,112 -24,31 -70,52 -116,72 -95,40 -179,70 -230,143 -20,28 -49,104 -24,143 24,35 72,54 117,70 172,61 462,77 663,88 349,19 751,11 1107,6 224,-3 845,-21 980,-144 95,-86 -33,-182 -89,-219 -38,-26 -75,-49 -114,-73 -142,-85 -134,-126 38,-118 190,9 592,90 742,22 75,-34 95,-129 101,-228l-6 17 -55 0 0 10c-98,0 -196,0 -294,0 -51,0 -86,-11 -140,-7 -47,4 -87,0 -140,0 -3,4 -4,-3 -4,14l-53 0 0 -14c-54,0 -311,-8 -346,-4l-351 -3c-20,-1 -41,0 -61,0 -24,0 -31,-4 -54,-4 -117,0 -53,-14 -104,-14 -23,0 -73,3 -93,0 -25,-3 2,-2 -19,-6l-251 -1c-144,0 -300,-7 -452,-7 -35,0 -56,-4 -90,-4 -57,0 -112,6 -180,4 -26,-1 -56,-7 -89,-3 -50,5 -213,3 -269,3l183 -7c-113,0 -225,0 -338,0 -53,0 -126,-7 -163,-2l-121 -2c-31,1 -29,2 -32,-7l-212 0 0 14 -105 0c-4,11 -1,7 -20,7 -41,0 -157,1 -186,9 -31,9 -18,2 -66,-2 -34,-2 -63,-4 -93,0z"/>
  <path class="fil3" d="M1805 3438c-5,16 -67,102 -81,124 -26,38 -240,353 -249,360l-327 479c-44,64 -39,40 -39,118 0,103 -5,217 0,320l760 1c13,30 -10,306 5,368l509 0 0 -369 140 0 70 0 0 -385 -210 -2 1 -35c-5,-90 -1,-197 -1,-289 0,-102 4,-650 -3,-711 -5,-40 -11,-83 -17,-122l-457 0c-14,12 -40,56 -51,72 -10,14 -41,63 -50,71z"/>
  <path class="fil3" d="M5253 5204c18,10 215,4 254,4 88,0 175,1 263,0l3 -6c-2,-42 -50,-254 -51,-272 -1,-10 -1,-6 3,-11 10,-7 90,-20 105,-20 9,-10 37,-9 51,-12 8,-2 20,-3 28,-5 16,-4 16,1 15,-13l-68 -361 -8 -10 -71 13 -131 25c-2,-10 -216,-1093 -216,-1125 -14,-13 3,-11 -53,0 -68,13 -412,76 -421,83 -7,7 -243,561 -261,601 -88,196 -172,403 -260,599 -10,23 -41,79 -37,105l70 358c33,5 720,-144 749,-139l36 186z"/>
  <path class="fil1" d="M559 5209l582 -1 729 2 -1 -370 -760 -1c-5,-103 0,-217 0,-320 0,-78 -5,-54 39,-118l327 -479c-32,-134 -22,-237 38,-367l48 -96c-5,-3 -3,-4 -18,0 -13,4 -3,4 -18,5 -8,-14 -108,-508 -119,-566l-230 1c-10,54 -26,112 -37,168 -36,178 -54,329 -105,509 -66,238 -159,377 -297,522 -108,115 -288,292 -333,486 -48,204 -15,401 108,568 15,21 37,41 47,57z"/>
  <path class="fil3" d="M2792 5209l486 0 -1 -14c3,-58 0,-107 6,-168 6,-51 14,-102 22,-153 26,-148 83,-427 153,-551 76,-137 189,-102 216,-62 91,74 37,364 14,486 -29,156 -64,312 -119,454 -3,14 29,8 57,8 22,0 45,0 68,0l406 0 7 -9c7,-29 20,-63 28,-93 116,-414 196,-1067 -311,-1250 -8,-3 -40,-11 -42,-13l-37 -11c-167,-53 -368,-35 -504,42 -128,73 -212,195 -276,325 -114,232 -225,722 -173,1009z"/>
  <path class="fil4" d="M1141 5208c-4,6 -1,2 -7,8 -24,23 -129,100 -58,158 47,37 181,59 223,53 30,-4 59,-2 93,0 48,4 35,11 66,2 29,-8 145,-9 186,-9 19,0 16,4 20,-7l105 0 0 -14 212 0c3,9 1,8 32,7l121 2c37,-5 110,2 163,2 113,0 225,0 338,0l-183 7c56,0 219,2 269,-3 33,-4 63,2 89,3 68,2 123,-4 180,-4 34,0 55,4 90,4 152,0 308,7 452,7l251 1c21,4 -6,3 19,6 20,3 70,0 93,0 51,0 -13,14 104,14 23,0 30,4 54,4 20,0 41,-1 61,0l351 3c35,-4 292,4 346,4l0 14 53 0c0,-17 1,-10 4,-14 53,0 93,4 140,0 54,-4 89,7 140,7 98,0 196,0 294,0l0 -10 55 0 6 -17c4,-45 21,-66 59,-80 153,-56 805,67 848,-147l-492 0 -142 -4c0,0 -2,-2 -3,-3l-3 6c-88,1 -175,0 -263,0 -39,0 -236,6 -254,-4 -8,8 3,3 -15,6l-736 0c-81,0 -171,3 -251,-1l-116 0c-36,1 -29,2 -28,-9l-7 9 -406 0c-23,0 -46,0 -68,0 -28,0 -60,6 -57,-8 -9,11 -1,6 -15,9l-61 0c-27,0 -53,0 -79,0l-131 -1 -6 -14 1 14 -486 0c-19,7 -244,7 -268,1l-141 -2 -509 0c-15,-62 8,-338 -5,-368l1 370 -729 -2z"/>
  <path class="fil5" d="M1402 2889l4 9c11,58 111,552 119,566 15,-1 5,-1 18,-5 15,-4 13,-3 18,0 22,-20 64,-29 95,-40 35,-12 70,-27 106,-34l26 -15c0,-69 -17,-167 -24,-237 -5,-40 -20,-213 -27,-236l-11 -122c84,-4 194,6 280,9 96,4 191,2 288,5l15 108 54 398c6,39 12,82 17,122 7,61 3,609 3,711 0,92 -4,199 1,289 14,-30 10,-43 33,-72 13,-16 25,-26 45,-34 25,-11 18,0 29,-73l273 0c9,4 4,-1 6,8 7,-7 3,-5 15,-7 4,-1 14,0 19,0l-14 -229c0,4 1,14 0,17 -3,13 2,5 -7,13 -10,-11 -4,4 -9,-13l-5 -61c-1,0 -8,0 -14,-2 0,-56 -8,-19 -6,-51 1,-17 2,-18 -5,-32 -7,-14 -6,-1 -12,-17 -5,-14 2,-10 -4,-32 -11,-41 -6,-13 -7,-45 -2,-23 -8,3 -10,-47 0,-23 -8,-23 -10,-46 -2,-12 -1,-16 -4,-25 -4,-16 0,-2 -3,-10 -1,-1 -1,-2 -2,-3 0,-1 0,-1 -1,-2 -8,-20 -3,-30 -11,-50 -18,-43 -14,-58 -24,-87 0,-1 -1,-2 -1,-3 -3,-11 -3,-14 -5,-25 -4,-24 -13,-42 -19,-66 -4,-17 -12,-24 -15,-35l-1 -6c-2,-8 -2,-6 -3,-11 -3,-7 -1,3 -4,-12 -3,-16 -1,-9 -6,-22 -5,-16 -6,-31 -11,-46 -12,-38 -1,-18 -19,-34 0,-20 3,-26 3,-41 -1,-1 -8,-6 -9,-7l-12 -36c-7,-55 -6,-36 -17,-76 -5,-17 -3,-10 -9,-24 -15,-38 -13,-61 -29,-107l-62 -239c-12,-47 5,-11 -9,-48 -3,-7 -2,-7 -5,-14 -2,-7 -1,-3 -3,-11 -11,-32 -4,-28 -16,-63 -8,-21 -1,-29 -9,-52 -10,-25 -1,-12 -6,-34 -2,-8 -3,-13 -5,-24l-15 -42 -73 -5c-1,-1 -2,-1 -3,-1 -107,0 -206,-18 -301,-49l-15 2c-88,8 -175,19 -262,28 -83,9 -181,10 -244,47 -53,32 -104,91 -111,180 -5,67 43,195 42,248z"/>
  <path class="fil6" d="M1321 1329l-36 29 290 375 460 -50c9,23 28,210 32,247 8,62 8,62 -4,122 -8,36 -20,79 -24,116l-47 216c95,31 194,49 301,49 41,0 268,-1 289,-16l-20 -8c-1,0 -2,-1 -3,-1 3,-4 2,-1 3,-8l1 -312c0,-8 0,-12 -2,-20l-3 -17c0,-21 1,-8 -47,-36 -135,-81 -239,-195 -309,-341 -35,-72 -85,-189 -95,-279 15,14 256,348 303,404 7,8 13,14 18,23 19,36 17,29 77,17 14,-3 19,-5 30,-9l290 -68c8,8 3,-4 4,10 24,-28 59,-1 76,-117 30,-203 -26,-188 -212,-261 -19,-7 -54,-24 -72,-27 -29,20 -121,120 -141,130l-61 -55c-12,-10 -22,-15 -23,-36 0,-9 1,-20 1,-29 0,-4 0,-11 -1,-14 -3,-22 -26,-14 -65,-19 -22,-3 -34,-14 -40,-28l-37 -31 -19 8c-11,16 -42,33 -60,45 -44,32 -22,20 -64,4l-425 186c-21,-16 -49,-46 -70,-66 -22,-22 -43,-46 -66,-67l-136 -133c-15,8 -35,25 -49,35 -12,9 -32,27 -44,32z"/>
  <path class="fil2" d="M559 5209c-10,-16 -32,-36 -47,-57 -123,-167 -156,-364 -108,-568 45,-194 225,-371 333,-486 138,-145 231,-284 297,-522 51,-180 69,-331 105,-509 11,-56 27,-114 37,-168l230 -1 -4 -9c-2,8 1,4 -6,6l-390 3c-18,35 -62,283 -72,338 -38,211 -82,446 -189,629 -30,50 -54,82 -84,121 -13,18 -33,43 -47,57l-50 55c-61,74 -120,124 -192,216 -183,233 -219,511 -74,775 34,63 77,102 87,120l174 0z"/>
  <path class="fil6" d="M4178 3190c41,4 77,63 73,115 -4,50 -37,109 -16,160 43,105 201,65 198,174 -1,51 -33,97 -36,151 -5,143 209,175 180,280 -8,26 -29,43 -33,63 23,-7 93,-56 107,-68 32,-28 54,-48 76,-97 60,-133 -67,-172 -44,-273 24,-102 91,-138 10,-257 -53,-77 -139,-86 -81,-222l4 -9c16,-67 28,-109 -3,-174 -21,-45 -46,-70 -78,-102 -11,-10 -4,-6 -12,-16 -2,11 1,4 -8,12 -4,4 -6,5 -10,8l-67 52c-31,22 -58,45 -87,67 -28,23 -57,43 -87,68 -15,12 -28,22 -44,35 -14,10 -29,20 -42,33z"/>
  <path class="fil2" d="M4612 3216l1492 2c36,39 96,164 116,223 31,96 47,176 50,292 6,224 -37,428 15,641 69,281 347,326 470,554 62,115 43,174 34,281l172 0c15,-121 21,-182 -34,-281 -88,-163 -231,-217 -345,-338 -224,-236 -133,-537 -139,-861 -2,-174 -49,-320 -134,-463 -6,-9 -12,-18 -17,-26 -6,-9 -10,-16 -19,-25 -58,-4 -141,-2 -202,-2 -69,0 -139,0 -208,0l-1235 -1c-1,0 5,9 -12,-5l-4 9z"/>
  <path class="fil7" d="M2582 2417c-21,15 -248,16 -289,16 1,0 2,0 3,1l73 5 15 42c2,11 3,16 5,24 5,22 -4,9 6,34 8,23 1,31 9,52 12,35 5,31 16,63 2,8 1,4 3,11 3,7 2,7 5,14 14,37 -3,1 9,48l62 239c16,46 14,69 29,107 6,14 4,7 9,24 11,40 10,21 17,76l12 36c1,1 8,6 9,7 0,15 -3,21 -3,41 18,16 7,-4 19,34 5,15 6,30 11,46 5,13 3,6 6,22 3,15 1,5 4,12 1,5 1,3 3,11l1 6c3,11 11,18 15,35 6,24 15,42 19,66 2,11 2,14 5,25 0,1 1,2 1,3 10,29 6,44 24,87 8,20 3,30 11,50 1,1 1,1 1,2 1,1 1,2 2,3 3,8 -1,-6 3,10 3,9 2,13 4,25 2,23 10,23 10,46 2,50 8,24 10,47 1,32 -4,4 7,45 6,22 -1,18 4,32 6,16 5,3 12,17 7,14 6,15 5,32 -2,32 6,-5 6,51 6,2 13,2 14,2l5 61c5,17 -1,2 9,13 9,-8 4,0 7,-13 1,-3 0,-13 0,-17 -3,-134 -15,-273 -23,-406 -8,-134 -17,-268 -23,-403l-18 -300c-5,-23 -9,-79 -8,-98 4,-126 -16,-273 -20,-403 -15,11 -90,18 -116,17z"/>
  <path class="fil8" d="M1762 3385c10,7 32,42 43,53 9,-8 40,-57 50,-71 11,-16 37,-60 51,-72l457 0 -54 -398 -572 0c7,23 22,196 27,236 7,70 24,168 24,237l-26 15z"/>
  <path class="fil3" d="M1377 1143c18,35 26,80 37,119l136 133c23,21 44,45 66,67 21,20 49,50 70,66l425 -186c-10,-15 -29,-24 -39,-55 -12,-37 -5,-36 -27,-70 -27,-40 -55,-70 -82,-111l-162 3 -2 11 -400 1c-6,10 3,8 -12,17l-10 5z"/>
  <path class="fil9" d="M2582 2417c26,1 101,-6 116,-17 0,-58 6,-115 8,-172 2,-38 1,-140 18,-165l105 -291c-1,-14 4,-2 -4,-10l-290 68c-11,4 -16,6 -30,9 -60,12 -58,19 -77,-17 -5,-9 -11,-15 -18,-23 -47,-56 -288,-390 -303,-404 10,90 60,207 95,279 70,146 174,260 309,341 48,28 47,15 47,36l3 17c2,8 2,12 2,20l-1 312c-1,7 0,4 -3,8 1,0 2,1 3,1l20 8z"/>
  <path class="fil10" d="M3414 5210c26,0 52,0 79,0l61 0c14,-3 6,2 15,-9 55,-142 90,-298 119,-454 23,-122 77,-412 -14,-486 -12,19 -62,20 -120,179 -63,174 -156,603 -140,770z"/>
  <path class="fil7" d="M3782 3844c2,2 34,10 42,13 507,183 427,836 311,1250 -8,30 -21,64 -28,93 -1,11 -8,10 28,9l116 0c3,-25 20,-73 28,-101 64,-246 111,-543 53,-788 -36,-152 -102,-247 -186,-324 -140,-128 -324,-143 -344,-152l-9 -7c-6,11 2,7 -11,7z"/>
  <path class="fil5" d="M5430 3411c0,32 214,1115 216,1125l131 -25c8,-20 -42,-246 -50,-286l-110 -566c-9,-47 -43,-257 -56,-283l-131 25 0 10z"/>
  <path class="fil10" d="M5915 5431c-76,5 -150,16 -217,40 -69,24 -130,75 -40,122 145,77 494,80 665,19 71,-25 132,-73 40,-124 -102,-57 -317,-67 -448,-57z"/>
  <path class="fil5" d="M3277 5195l6 14 131 1c-16,-167 77,-596 140,-770 58,-159 108,-160 120,-179 -27,-40 -140,-75 -216,62 -70,124 -127,403 -153,551 -8,51 -16,102 -22,153 -6,61 -3,110 -6,168z"/>
  <path class="fil11" d="M807 1214c10,-5 381,-53 413,-53 14,-8 40,-3 53,-11l4 -24c0,-9 -1,-19 1,-28 12,-48 85,0 99,45l10 -5c15,-9 6,-7 12,-17l400 -1 2 -11 0 -59c30,-1 179,-5 195,3l9 -5c-46,-4 -122,-3 -171,-2 -54,1 -19,-5 -40,-11l-391 -1c-31,-5 41,-6 -62,-19 -86,-10 -500,-53 -516,-60 1,15 12,41 15,63 4,25 5,50 3,75 -4,51 -20,84 -36,121z"/>
  <path class="fil12" d="M2280 1031c-2,33 -6,10 -14,29 -5,11 -4,5 1,13 10,19 3,-9 9,14l15 229c6,14 18,25 40,28 39,5 62,-3 65,19 1,3 1,10 1,14 0,9 -1,20 -1,29 1,21 11,26 23,36l61 55c20,-10 112,-110 141,-130 -5,-47 -12,-124 -12,-169 1,-23 20,-34 31,-60 11,-27 10,-63 -23,-60 -36,22 -26,7 -34,54 -4,25 -8,54 -27,63 -22,-9 -28,-58 -32,-81 -6,-32 -12,-68 -14,-101 -63,3 -129,35 -230,18z"/>
  <path class="fil3" d="M3717 5900c-34,3 -74,2 -109,5 -39,2 -69,6 -107,13 -45,8 -188,41 -101,84 121,61 479,57 637,29 39,-7 188,-40 100,-84 -76,-39 -318,-57 -420,-47z"/>
  <path class="fil10" d="M1690 5556c-67,5 -127,10 -187,29 -67,21 -116,61 -28,98 128,54 427,56 573,10 67,-22 114,-59 30,-96 -92,-41 -276,-51 -388,-41z"/>
  <path class="fil13" d="M1561 3459l-48 96c-60,130 -70,233 -38,367 9,-7 223,-322 249,-360 14,-22 76,-108 81,-124 -11,-11 -33,-46 -43,-53 -36,7 -71,22 -106,34 -31,11 -73,20 -95,40z"/>
  <path class="fil14" d="M4837 4694l304 -61c-10,-80 -35,-162 -45,-241 -11,-84 -26,-166 -37,-251 -17,-2 -14,7 -18,23 -42,171 -91,243 -146,389 -14,38 -49,107 -58,141z"/>
  <path class="fil13" d="M2280 1031c101,17 167,-15 230,-18 2,33 8,69 14,101 4,23 10,72 32,81 19,-9 23,-38 27,-63 8,-47 -2,-32 34,-54 -2,-74 19,-162 -42,-194 -78,-40 -217,33 -313,15 -103,-19 -127,15 -63,91 18,22 43,36 81,41z"/>
  <path class="fil15" d="M4061 3213c-17,16 -45,36 -66,52 -92,70 -66,38 -102,136 -11,31 -21,58 -31,87 -22,60 -42,116 -63,174 -11,29 -21,58 -31,87 -6,16 -10,26 -16,42 -11,30 -15,30 -7,42l37 11c13,0 5,4 11,-7 19,-63 45,-126 67,-189l104 -285c8,-18 148,-121 178,-144 13,-11 22,-21 36,-29 13,-13 28,-23 42,-33 16,-13 29,-23 44,-35 30,-25 59,-45 87,-68 29,-22 56,-45 87,-67l67 -52c4,-3 6,-4 10,-8 9,-8 6,-1 8,-12l-27 -37c-16,7 -90,68 -109,82 -37,29 -73,58 -110,85 -36,28 -71,55 -107,83l-109 85z"/>
  <path class="fil16" d="M1737 2897l572 0 -15 -108c-97,-3 -192,-1 -288,-5 -86,-3 -196,-13 -280,-9l11 122z"/>
  <path class="fil13" d="M2384 4417l-1 35 209 0 38 -2c14,-20 66,-64 87,-85 8,-7 38,-37 42,-45 4,-9 10,-61 11,-74 -2,-9 3,-4 -6,-8l-273 0c-11,73 -4,62 -29,73 -20,8 -32,18 -45,34 -23,29 -19,42 -33,72z"/>
  <path class="fil7" d="M5856 4508l68 361 7 7 132 -25 -74 -380 -130 26c-3,6 -5,-8 -3,11z"/>
  <path class="fil5" d="M1699 4452c9,-20 29,-46 42,-65 14,-21 28,-43 43,-65l87 -129c6,-56 3,-147 9,-213 0,-2 1,-13 1,-14l-4 -16c-14,4 -5,-6 -21,31 -69,153 -277,427 -296,470l139 1z"/>
  <path class="fil7" d="M2630 4450l-38 2c12,22 5,159 5,193 0,61 -4,133 1,193l135 0 -1 -386 -102 -2z"/>
  <polygon class="fil5" points="2383,5208 2524,5210 2523,4839 2383,4839 "/>
  <path class="fil17" d="M807 1214c16,-37 32,-70 36,-121 2,-25 1,-50 -3,-75 -3,-22 -14,-48 -15,-63 -18,-13 3,-16 -18,-17 -15,-2 -10,4 -18,15 -51,-5 -94,-23 -122,12 -42,54 -44,191 5,242 26,29 62,12 96,9 22,-1 20,7 39,-2z"/>
  <path class="fil12" d="M2005 1048l-9 5c-21,8 -61,25 -33,53 27,41 55,71 82,111 22,34 15,33 27,70 10,31 29,40 39,55 42,16 20,28 64,-4 18,-12 49,-29 60,-45 -27,-57 -66,-125 -88,-186 -7,-16 -18,-37 -21,-57l131 1c-16,-9 -103,-3 -129,-3l-4 -4c-14,-14 -18,-18 -54,-13 -24,4 -47,15 -65,17z"/>
  <path class="fil5" d="M5773 5202c1,1 3,3 3,3l142 4 -61 -315 -27 5c-15,0 -95,13 -105,20 -4,5 -4,1 -3,11 1,18 49,230 51,272z"/>
  <path class="fil12" d="M1220 1161c2,35 25,69 41,92l53 66c0,1 1,1 1,2l6 8c12,-5 32,-23 44,-32 14,-10 34,-27 49,-35 -11,-39 -19,-84 -37,-119 -14,-45 -87,-93 -99,-45 -2,9 -1,19 -1,28l-4 24c-13,8 -39,3 -53,11z"/>
  <path class="fil10" d="M1699 4452l172 -1 0 -258 -87 129c-15,22 -29,44 -43,65 -13,19 -33,45 -42,65z"/>
  <path class="fil8" d="M1977 2386l15 -2 47 -216c-14,7 -152,18 -182,20 -1,22 70,145 101,175 8,7 15,12 19,23z"/>
  <path class="fil13" d="M1801 1109l162 -3c-28,-28 12,-45 33,-53 -16,-8 -165,-4 -195,-3l0 59z"/>
  <path class="fil13" d="M2147 1107l110 0 0 -56 -131 -1c3,20 14,41 21,57z"/>
 </g>
</svg>
