<svg id="svg" version="1.1" xmlns="http://www.w3.org/2000/svg" xmlns:xlink="http://www.w3.org/1999/xlink" width="400" height="400" viewBox="0, 0, 400,400"><g id="svgg"><path id="path0" d="M90.156 63.094 C 77.955 63.222,76.864 63.434,77.915 65.467 C 78.124 65.870,78.525 67.183,78.807 68.384 C 79.278 70.389,93.484 85.600,94.886 85.600 C 95.306 85.600,117.736 75.923,118.151 75.562 C 118.345 75.394,118.117 74.766,117.644 74.165 C 117.172 73.565,116.512 72.157,116.178 71.037 C 115.812 69.812,114.645 67.804,113.250 66.000 L 110.931 63.000 106.165 62.988 C 103.544 62.981,96.340 63.029,90.156 63.094 M97.600 158.290 C 97.600 159.395,97.713 160.863,97.850 161.550 L 98.100 162.800 113.853 162.800 L 129.607 162.800 129.370 160.500 C 129.240 159.235,129.075 158.003,129.003 157.762 C 128.870 157.316,123.913 157.048,106.300 156.533 L 97.600 156.279 97.600 158.290 M106.733 186.300 C 106.407 186.685,105.094 188.620,103.814 190.600 C 96.226 202.337,85.327 218.323,83.066 221.032 C 82.663 221.516,80.766 224.227,78.852 227.056 C 76.937 229.885,74.371 233.640,73.150 235.400 C 71.928 237.160,69.347 240.940,67.415 243.800 C 65.483 246.660,63.674 249.270,63.396 249.600 C 62.797 250.310,62.153 266.748,62.597 269.978 L 62.875 272.000 83.605 272.000 C 95.006 272.000,104.619 272.109,104.967 272.243 C 105.521 272.455,105.600 273.750,105.600 282.643 L 105.600 292.800 119.800 292.800 L 134.000 292.800 134.000 282.400 L 134.000 272.000 139.800 272.000 L 145.600 272.000 145.600 261.400 L 145.600 250.800 139.800 250.800 L 134.000 250.800 133.942 248.300 C 133.910 246.925,133.865 233.920,133.842 219.400 C 133.808 198.266,133.683 192.262,133.212 189.300 L 132.623 185.600 119.974 185.600 C 108.418 185.600,107.273 185.661,106.733 186.300 M301.000 192.197 C 299.900 192.469,297.290 193.002,295.200 193.382 C 290.041 194.318,283.874 195.498,281.149 196.071 C 278.904 196.542,278.895 196.550,277.810 198.972 C 277.212 200.307,270.729 215.260,263.405 232.200 C 256.081 249.140,249.632 263.993,249.075 265.206 C 247.360 268.941,247.332 270.160,248.809 276.600 C 249.011 277.480,249.650 280.720,250.230 283.800 C 250.810 286.880,251.403 289.528,251.547 289.685 C 251.846 290.009,256.512 289.302,263.692 287.845 C 266.391 287.297,269.680 286.639,271.000 286.383 C 272.320 286.127,274.660 285.665,276.200 285.357 C 287.310 283.131,293.232 282.129,293.425 282.441 C 293.617 282.750,294.062 284.796,294.810 288.800 C 295.036 290.010,295.310 291.405,295.418 291.900 L 295.615 292.800 310.051 292.800 L 324.488 292.800 324.282 291.500 C 324.065 290.126,323.090 285.022,322.468 282.000 C 321.287 276.260,321.428 276.036,326.612 275.439 C 331.205 274.910,333.259 274.328,332.979 273.633 C 332.839 273.285,332.485 271.650,332.191 270.000 C 331.053 263.606,330.402 260.137,330.049 258.600 C 329.847 257.720,329.560 256.131,329.412 255.070 L 329.142 253.139 327.471 253.392 C 326.552 253.532,325.440 253.806,325.000 254.003 C 324.324 254.305,321.356 254.868,318.204 255.293 C 317.352 255.408,317.210 254.950,315.765 247.400 C 315.428 245.640,314.891 242.895,314.570 241.301 C 314.250 239.706,313.735 237.096,313.426 235.501 C 313.117 233.905,312.476 230.620,312.001 228.200 C 311.527 225.780,310.867 222.360,310.534 220.600 C 310.202 218.840,309.680 216.140,309.374 214.600 C 307.579 205.547,305.986 196.927,305.364 192.900 C 305.135 191.416,304.540 191.320,301.000 192.197 M194.600 214.233 C 181.542 216.071,172.104 223.992,166.135 238.122 C 165.374 239.925,164.585 241.760,164.383 242.200 C 162.749 245.751,159.715 257.071,158.217 265.200 C 156.655 273.680,155.933 286.424,156.783 290.520 L 157.257 292.800 170.728 292.799 L 184.200 292.797 184.330 287.299 C 184.460 281.852,184.637 280.190,185.790 273.600 C 187.169 265.723,186.996 266.540,189.217 257.400 C 190.219 253.278,192.108 247.451,192.993 245.754 C 193.324 245.119,193.596 244.375,193.598 244.100 C 193.599 243.825,193.780 243.600,194.000 243.600 C 194.220 243.600,194.400 243.344,194.400 243.031 C 194.400 242.239,196.266 240.102,198.146 238.740 C 201.882 236.034,207.204 237.994,208.865 242.688 C 209.682 244.998,209.553 256.768,208.654 261.800 C 207.412 268.761,205.448 278.270,204.770 280.600 C 204.579 281.260,204.040 283.150,203.574 284.800 C 203.108 286.450,202.383 288.752,201.963 289.915 C 201.543 291.078,201.200 292.203,201.200 292.415 C 201.200 292.655,206.782 292.800,215.992 292.800 L 230.785 292.800 231.025 291.700 C 231.158 291.095,231.448 290.060,231.670 289.400 C 236.985 273.627,238.509 252.158,235.205 239.600 C 232.220 228.252,220.201 216.400,211.678 216.400 C 211.283 216.400,210.779 216.219,210.559 215.999 C 209.357 214.797,198.848 213.635,194.600 214.233 M105.648 236.234 C 105.543 245.954,105.360 250.289,105.048 250.494 C 104.333 250.963,88.087 250.864,87.793 250.389 C 87.653 250.162,88.599 248.407,89.895 246.489 C 91.190 244.570,93.653 240.930,95.366 238.400 C 98.844 233.265,103.018 226.293,104.173 223.689 C 105.664 220.326,105.808 221.550,105.648 236.234 M284.997 234.300 C 285.125 235.125,285.403 236.790,285.614 238.000 C 285.825 239.210,286.184 241.550,286.412 243.200 C 287.091 248.119,288.996 258.647,289.386 259.636 C 289.706 260.447,288.972 261.021,287.200 261.345 C 286.430 261.486,284.450 261.872,282.800 262.203 C 281.150 262.535,278.450 263.052,276.800 263.353 C 275.150 263.654,273.487 264.031,273.103 264.192 C 271.517 264.855,272.282 262.110,276.000 253.800 C 279.191 246.670,282.172 238.690,283.210 234.500 C 283.742 232.350,284.677 232.245,284.997 234.300 M205.600 332.014 C 186.965 333.124,184.258 337.909,201.200 339.792 C 216.398 341.481,236.267 338.944,234.188 335.580 C 232.635 333.068,218.179 331.264,205.600 332.014 " stroke="none" fill="#ecf8f6" fill-rule="evenodd"></path><path id="path1" d="M39.766 52.655 C 40.083 53.294,39.032 54.064,38.251 53.764 C 37.879 53.621,37.600 53.714,37.600 53.981 C 37.600 54.237,37.420 54.336,37.200 54.200 C 36.980 54.064,36.800 54.244,36.800 54.600 C 36.800 54.979,36.987 55.132,37.252 54.968 C 37.529 54.797,37.626 54.904,37.502 55.244 C 37.391 55.550,37.115 55.761,36.888 55.713 C 36.661 55.665,36.367 55.910,36.233 56.257 C 36.052 56.729,36.169 56.827,36.695 56.644 C 37.290 56.436,37.279 56.492,36.624 56.999 C 36.196 57.330,36.061 57.600,36.324 57.600 C 36.586 57.600,36.800 57.774,36.800 57.987 C 36.800 58.201,36.570 58.286,36.288 58.178 C 35.966 58.055,35.745 58.356,35.692 58.991 C 35.645 59.569,35.821 60.003,36.104 60.006 C 36.429 60.010,36.394 60.142,36.003 60.389 C 35.528 60.690,35.508 60.868,35.903 61.263 C 36.299 61.659,36.400 61.649,36.400 61.213 C 36.400 60.913,36.516 60.782,36.657 60.924 C 36.798 61.065,36.671 61.473,36.375 61.831 C 35.762 62.569,35.541 63.580,35.874 64.120 C 35.998 64.321,36.274 64.241,36.488 63.943 C 36.790 63.520,36.829 63.546,36.665 64.061 C 36.550 64.425,36.707 65.055,37.015 65.461 C 37.323 65.868,37.574 66.470,37.573 66.800 C 37.572 67.156,37.357 67.012,37.043 66.446 C 36.701 65.830,36.415 65.653,36.233 65.946 C 36.079 66.196,36.143 66.400,36.376 66.400 C 36.609 66.400,36.800 66.630,36.800 66.911 C 36.800 67.192,37.160 67.730,37.600 68.107 C 38.095 68.531,38.400 68.612,38.400 68.320 C 38.400 68.060,38.643 68.179,38.939 68.584 C 39.346 69.141,39.554 69.198,39.789 68.818 C 40.035 68.419,40.172 68.428,40.444 68.857 C 40.697 69.257,40.789 69.268,40.794 68.900 C 40.797 68.625,41.070 68.400,41.400 68.400 C 41.730 68.400,42.000 68.242,42.000 68.049 C 42.000 67.856,42.585 67.748,43.300 67.809 C 44.015 67.870,44.747 67.713,44.926 67.460 C 45.109 67.202,45.141 67.395,44.999 67.900 C 44.860 68.395,44.917 68.800,45.126 68.800 C 46.488 68.800,48.145 59.086,47.205 56.614 C 46.988 56.044,46.769 55.028,46.718 54.358 C 46.619 53.055,46.000 52.278,46.000 53.456 C 46.000 54.004,45.893 54.053,45.520 53.680 C 45.256 53.416,44.761 53.203,44.420 53.206 C 43.874 53.212,43.871 53.258,44.400 53.600 C 44.929 53.942,44.926 53.988,44.380 53.994 C 44.039 53.997,43.544 53.784,43.280 53.520 C 42.907 53.147,42.800 53.164,42.800 53.596 C 42.800 53.972,42.609 53.900,42.213 53.376 C 41.882 52.939,41.620 52.818,41.613 53.100 C 41.596 53.739,40.759 53.576,40.072 52.800 C 39.780 52.470,39.642 52.405,39.766 52.655 M102.900 62.687 C 103.505 62.778,104.495 62.778,105.100 62.687 C 105.705 62.595,105.210 62.520,104.000 62.520 C 102.790 62.520,102.295 62.595,102.900 62.687 M83.000 74.800 C 84.750 76.560,86.271 78.000,86.381 78.000 C 86.491 78.000,85.150 76.560,83.400 74.800 C 81.650 73.040,80.129 71.600,80.019 71.600 C 79.909 71.600,81.250 73.040,83.000 74.800 M209.405 85.077 C 208.528 85.178,207.628 85.403,207.405 85.579 C 207.182 85.755,206.145 86.023,205.100 86.174 C 204.055 86.325,203.200 86.612,203.200 86.812 C 203.200 87.012,202.948 87.078,202.640 86.960 C 202.333 86.842,201.962 86.938,201.817 87.173 C 201.672 87.408,201.248 87.606,200.876 87.614 C 200.504 87.621,199.480 87.975,198.600 88.400 C 197.720 88.825,196.775 89.179,196.500 89.186 C 196.225 89.194,195.998 89.335,195.996 89.500 C 195.994 89.665,195.169 90.160,194.162 90.600 C 193.156 91.040,192.213 91.580,192.066 91.800 C 191.920 92.020,190.810 92.730,189.600 93.379 C 188.390 94.027,187.220 94.700,187.000 94.873 C 185.496 96.063,182.757 98.000,182.580 98.000 C 182.462 98.000,182.149 98.183,181.883 98.407 C 180.782 99.336,179.623 100.236,178.800 100.800 C 178.319 101.130,177.555 101.715,177.101 102.100 C 176.648 102.485,176.153 102.800,176.000 102.800 C 175.847 102.800,175.352 103.115,174.899 103.500 C 174.445 103.885,173.677 104.470,173.191 104.800 C 172.705 105.130,171.895 105.715,171.391 106.100 C 170.886 106.485,170.360 106.800,170.220 106.800 C 170.080 106.800,169.749 106.983,169.483 107.207 C 167.555 108.834,167.013 109.200,166.539 109.200 C 166.242 109.200,166.000 109.359,166.000 109.553 C 166.000 109.748,165.685 110.016,165.300 110.149 C 164.915 110.282,163.340 111.111,161.800 111.991 C 160.260 112.871,158.730 113.710,158.400 113.855 C 158.070 113.999,157.045 114.451,156.122 114.859 C 155.199 115.267,154.272 115.600,154.061 115.600 C 152.415 115.600,151.281 136.712,152.417 146.190 C 152.628 147.944,152.803 151.814,152.807 154.790 C 152.811 157.765,152.991 161.820,153.207 163.800 C 153.422 165.780,153.870 172.440,154.201 178.600 C 154.533 184.760,155.066 194.120,155.386 199.400 C 155.706 204.680,156.157 212.420,156.387 216.600 C 156.617 220.780,156.984 226.090,157.203 228.400 C 157.867 235.405,157.753 238.267,156.800 238.516 C 156.162 238.683,156.000 239.062,156.000 240.382 C 156.000 242.719,155.296 243.834,151.837 246.980 C 148.196 250.290,148.188 250.328,151.100 250.480 L 153.400 250.600 153.507 261.328 L 153.613 272.055 149.806 271.928 C 147.712 271.857,145.999 271.935,145.999 272.100 C 146.000 272.265,145.100 272.400,144.000 272.400 L 142.000 272.400 142.000 282.580 C 142.000 291.005,141.901 292.815,141.426 293.080 C 141.111 293.256,144.392 293.344,148.718 293.275 C 153.043 293.207,156.615 293.117,156.655 293.075 C 156.694 293.034,156.572 290.930,156.382 288.400 C 155.966 282.848,156.528 272.808,157.589 266.835 C 158.641 260.908,159.557 256.409,159.998 255.000 C 160.205 254.340,160.669 252.720,161.031 251.400 C 165.513 235.024,173.623 222.224,182.402 217.671 C 190.312 213.568,205.974 212.226,209.909 215.314 C 210.285 215.609,210.356 215.552,210.182 215.097 C 210.052 214.758,210.138 214.362,210.373 214.217 C 210.608 214.072,210.800 213.676,210.800 213.337 C 210.800 212.998,211.066 212.154,211.391 211.460 C 211.716 210.767,212.427 208.850,212.971 207.200 C 213.515 205.550,214.343 203.210,214.810 202.000 C 215.278 200.790,215.824 199.260,216.024 198.600 C 216.224 197.940,216.553 197.040,216.755 196.600 C 216.957 196.160,217.517 194.630,218.000 193.200 C 220.100 186.982,220.458 186.440,224.423 183.471 C 228.959 180.073,228.942 180.000,223.650 180.000 L 219.300 180.000 219.050 178.750 C 218.544 176.222,219.251 173.949,221.124 172.076 C 222.452 170.748,225.710 168.400,226.224 168.400 C 226.504 168.400,226.793 168.265,226.867 168.100 C 227.023 167.748,229.462 166.000,229.796 166.000 C 230.352 166.000,233.927 162.101,234.198 161.200 C 234.363 160.650,234.648 160.011,234.831 159.781 C 235.251 159.252,235.924 155.695,236.530 150.800 C 236.788 148.710,237.115 146.820,237.254 146.600 C 237.394 146.380,237.637 145.075,237.794 143.700 C 237.950 142.325,238.241 141.200,238.439 141.200 C 238.638 141.200,238.800 140.882,238.800 140.494 C 238.800 140.106,239.135 139.161,239.544 138.394 C 239.953 137.627,240.425 136.564,240.593 136.031 C 240.938 134.933,240.901 134.983,243.593 132.000 C 244.685 130.790,245.583 129.665,245.589 129.500 C 245.595 129.335,245.789 129.200,246.019 129.200 C 246.250 129.200,246.835 128.795,247.319 128.300 C 248.963 126.621,255.436 123.800,259.200 123.122 C 261.716 122.669,268.987 122.936,269.714 123.508 C 269.982 123.718,270.722 124.015,271.360 124.167 C 272.402 124.417,275.368 126.479,277.961 128.756 C 279.750 130.327,280.077 129.643,278.800 127.000 C 278.375 126.120,278.021 125.175,278.014 124.900 C 278.006 124.625,277.820 124.400,277.600 124.400 C 277.380 124.400,277.200 124.129,277.200 123.799 C 277.200 123.468,276.840 122.525,276.400 121.704 C 275.960 120.884,275.600 119.984,275.600 119.706 C 275.600 119.428,275.420 119.200,275.200 119.200 C 274.980 119.200,274.800 119.008,274.800 118.774 C 274.800 118.250,273.057 114.299,271.988 112.400 C 271.554 111.630,270.980 110.505,270.712 109.900 C 270.444 109.295,270.084 108.800,269.912 108.800 C 269.741 108.800,269.600 108.613,269.600 108.384 C 269.600 108.026,268.198 105.796,267.599 105.200 C 267.488 105.090,266.858 104.199,266.199 103.220 C 264.648 100.918,258.507 94.776,256.980 94.001 C 256.331 93.671,255.710 93.311,255.600 93.201 C 254.960 92.559,252.641 91.197,250.200 90.031 C 248.660 89.295,247.065 88.523,246.655 88.315 C 245.273 87.614,239.982 86.000,239.068 86.000 C 238.568 86.000,237.935 85.775,237.660 85.500 C 237.160 85.000,213.214 84.642,209.405 85.077 M113.900 123.300 C 113.800 124.235,113.408 126.398,113.028 128.108 C 112.649 129.817,112.416 131.437,112.512 131.708 C 112.607 131.978,112.900 131.120,113.163 129.800 C 113.426 128.480,113.902 126.308,114.221 124.974 C 114.895 122.150,114.931 121.600,114.440 121.600 C 114.242 121.600,113.999 122.365,113.900 123.300 M111.879 132.957 C 111.715 133.374,111.675 133.809,111.791 133.924 C 112.155 134.289,112.476 133.691,112.324 132.931 C 112.183 132.235,112.162 132.236,111.879 132.957 M98.691 155.889 C 99.401 155.977,100.661 155.979,101.491 155.892 C 102.321 155.805,101.740 155.733,100.200 155.731 C 98.660 155.729,97.981 155.800,98.691 155.889 M120.500 156.691 C 121.325 156.778,122.675 156.778,123.500 156.691 C 124.325 156.605,123.650 156.534,122.000 156.534 C 120.350 156.534,119.675 156.605,120.500 156.691 M67.200 162.800 C 68.140 163.101,68.147 163.123,67.316 163.160 C 66.365 163.203,66.222 163.569,65.034 169.000 C 64.320 172.269,63.584 176.006,62.396 182.400 C 60.541 192.384,59.227 198.447,58.408 200.800 C 58.216 201.350,57.660 203.150,57.171 204.800 C 54.205 214.819,49.871 221.677,39.302 233.071 C 27.498 245.796,23.883 251.817,22.231 261.500 C 20.573 271.219,23.209 282.404,28.806 289.400 C 29.686 290.500,30.720 291.897,31.103 292.504 L 31.800 293.609 47.800 293.377 C 56.600 293.249,72.890 293.096,84.000 293.036 C 95.110 292.975,104.428 292.898,104.707 292.863 C 105.104 292.814,105.191 290.617,105.107 282.700 L 105.000 272.600 83.707 272.496 L 62.413 272.393 62.147 271.330 C 61.347 268.145,62.310 250.393,63.357 249.021 C 64.384 247.674,66.592 244.456,73.462 234.294 C 78.369 227.037,78.945 226.224,79.300 226.067 C 79.465 225.993,79.600 225.758,79.600 225.543 C 79.600 225.210,81.484 222.480,82.782 220.929 C 83.039 220.623,83.040 220.413,82.784 220.328 C 80.850 219.683,82.031 205.259,84.376 200.890 C 86.893 196.202,87.494 194.398,86.451 194.671 C 85.610 194.891,85.403 194.181,83.232 183.600 C 82.577 180.410,81.559 175.460,80.968 172.600 C 80.378 169.740,79.687 166.320,79.434 165.000 C 79.041 162.948,78.860 162.621,78.187 162.742 C 75.784 163.174,70.400 163.242,70.400 162.840 C 70.400 162.571,69.584 162.415,68.300 162.440 C 66.648 162.471,66.413 162.548,67.200 162.800 M98.290 167.400 C 98.409 168.940,98.653 170.920,98.834 171.800 C 99.053 172.865,99.087 172.283,98.936 170.061 C 98.812 168.224,98.567 166.244,98.392 165.661 C 98.205 165.035,98.163 165.749,98.290 167.400 M130.470 169.400 C 130.457 170.060,130.595 171.320,130.777 172.200 L 131.108 173.800 131.107 172.200 C 131.106 171.320,130.968 170.060,130.800 169.400 L 130.495 168.200 130.470 169.400 M99.293 176.400 C 99.293 177.170,99.375 177.485,99.476 177.100 C 99.576 176.715,99.576 176.085,99.476 175.700 C 99.375 175.315,99.293 175.630,99.293 176.400 M131.877 179.775 C 132.005 181.301,132.255 183.011,132.434 183.575 C 132.816 184.782,132.468 181.037,131.971 178.600 C 131.743 177.482,131.715 177.836,131.877 179.775 M99.673 179.400 C 99.658 180.280,99.795 181.720,99.977 182.600 L 100.308 184.200 100.324 182.800 C 100.333 182.030,100.197 180.590,100.020 179.600 L 99.700 177.800 99.673 179.400 M235.200 179.917 C 234.870 180.027,234.052 180.586,233.381 181.159 C 232.711 181.731,231.652 182.560,231.028 183.000 C 227.232 185.676,223.179 189.349,222.947 190.322 C 222.805 190.915,222.553 191.580,222.386 191.800 C 222.220 192.020,221.895 192.830,221.666 193.600 C 221.152 195.324,220.098 198.325,219.629 199.400 C 219.437 199.840,218.611 202.090,217.794 204.400 C 216.976 206.710,216.058 209.167,215.754 209.860 C 215.449 210.554,215.200 211.373,215.200 211.680 C 215.200 211.988,215.045 212.411,214.855 212.620 C 213.248 214.392,213.987 217.632,215.837 216.929 C 216.517 216.670,221.546 218.172,224.832 219.614 C 243.797 227.937,249.957 252.286,241.272 284.600 C 240.858 286.140,240.201 288.615,239.811 290.100 L 239.103 292.800 235.164 292.800 C 231.594 292.800,231.246 292.735,231.450 292.100 C 231.640 291.509,231.608 291.494,231.244 292.000 C 231.006 292.330,230.809 292.731,230.806 292.891 C 230.803 293.051,245.245 293.141,262.900 293.091 L 295.000 293.000 294.943 292.000 C 294.704 287.765,293.262 282.328,292.445 282.578 C 292.090 282.686,290.180 283.054,288.200 283.394 C 286.220 283.735,284.298 284.108,283.930 284.224 C 283.561 284.340,281.851 284.684,280.130 284.989 C 278.408 285.294,275.560 285.842,273.800 286.207 C 270.537 286.884,267.229 287.542,261.701 288.613 C 257.085 289.507,251.465 290.398,251.325 290.258 C 250.963 289.896,247.200 271.010,247.200 269.556 C 247.200 268.803,249.043 264.201,251.666 258.400 C 253.272 254.849,252.968 255.551,258.411 242.830 C 261.086 236.576,263.688 230.546,264.193 229.430 C 264.697 228.313,265.500 226.500,265.977 225.400 C 266.454 224.300,267.004 223.040,267.200 222.600 C 267.396 222.160,267.936 220.900,268.400 219.800 C 268.864 218.700,269.405 217.440,269.602 217.000 C 269.799 216.560,270.709 214.400,271.625 212.200 C 272.541 210.000,273.820 207.030,274.466 205.600 C 275.113 204.170,275.801 202.640,275.996 202.200 C 276.190 201.760,276.881 200.215,277.531 198.766 L 278.713 196.133 281.256 195.667 C 282.655 195.412,285.150 194.931,286.800 194.599 C 288.450 194.267,291.240 193.731,293.000 193.408 C 294.760 193.084,297.640 192.542,299.400 192.203 C 301.160 191.864,303.185 191.476,303.900 191.341 C 304.856 191.160,305.202 191.241,305.206 191.648 C 305.211 192.115,305.266 192.116,305.560 191.650 C 305.904 191.108,311.812 189.854,312.613 190.154 C 313.106 190.338,313.681 192.621,314.790 198.800 C 315.969 205.364,316.587 208.633,318.575 218.800 C 319.543 223.750,320.715 229.870,321.179 232.400 C 321.643 234.930,322.190 237.720,322.395 238.600 C 322.599 239.480,323.137 242.090,323.591 244.400 C 324.045 246.710,324.604 249.542,324.835 250.694 C 325.066 251.846,325.124 252.999,324.965 253.257 C 324.758 253.591,324.952 253.646,325.637 253.447 C 327.843 252.809,329.200 252.700,329.200 253.162 C 329.200 253.501,329.414 253.514,329.985 253.208 C 331.410 252.446,336.369 251.676,336.731 252.161 C 336.911 252.403,337.639 255.660,338.348 259.400 C 339.057 263.140,339.899 267.437,340.219 268.949 C 341.037 272.820,341.131 272.638,337.951 273.357 C 334.025 274.243,333.784 274.209,333.289 272.700 C 332.868 271.420,332.865 271.425,333.073 273.042 C 333.300 274.808,332.699 275.188,329.650 275.206 C 329.072 275.209,328.793 275.344,329.030 275.506 C 329.491 275.822,330.139 278.061,330.793 281.600 C 331.017 282.810,331.479 285.240,331.820 287.000 C 332.161 288.760,332.544 290.777,332.670 291.482 L 332.899 292.765 329.749 292.882 C 328.017 292.947,334.160 293.032,343.400 293.070 C 352.640 293.109,365.074 293.249,371.031 293.382 L 381.862 293.625 382.031 291.312 C 382.883 279.657,379.744 273.779,367.800 264.658 C 360.652 259.199,356.252 254.085,354.416 249.102 C 352.253 243.232,352.217 242.791,352.204 222.000 C 352.191 201.125,352.232 201.631,349.944 194.400 C 348.862 190.981,345.068 183.281,343.782 181.894 L 342.768 180.800 301.232 180.800 L 259.697 180.800 259.275 181.900 C 257.829 185.671,258.129 186.779,261.643 190.647 C 266.572 196.074,267.176 198.578,264.883 204.072 C 263.100 208.341,263.144 210.366,265.100 214.121 C 268.445 220.541,266.638 225.432,259.014 230.596 C 256.004 232.635,255.499 232.533,256.779 230.143 C 258.252 227.395,257.514 225.824,252.942 221.974 C 247.455 217.354,246.413 214.830,247.995 210.000 C 250.005 203.864,249.584 202.092,245.702 200.341 C 241.273 198.343,240.411 197.853,239.314 196.709 C 237.970 195.308,237.697 192.482,238.521 188.513 C 239.499 183.804,237.677 179.090,235.200 179.917 M100.474 187.420 C 100.433 188.531,100.198 189.642,99.951 189.889 C 99.619 190.221,99.734 190.665,100.394 191.592 C 100.886 192.282,101.376 192.758,101.484 192.649 C 101.592 192.541,101.302 192.047,100.840 191.551 C 99.902 190.544,99.797 190.134,100.424 189.925 C 100.679 189.840,100.788 188.912,100.698 187.592 L 100.548 185.400 100.474 187.420 M134.186 216.400 C 134.186 227.950,134.237 232.675,134.300 226.900 C 134.362 221.125,134.362 211.675,134.300 205.900 C 134.237 200.125,134.186 204.850,134.186 216.400 M226.600 224.000 C 227.459 224.880,228.252 225.600,228.362 225.600 C 228.472 225.600,227.859 224.880,227.000 224.000 C 226.141 223.120,225.348 222.400,225.238 222.400 C 225.128 222.400,225.741 223.120,226.600 224.000 M105.320 227.600 C 105.320 228.810,105.395 229.305,105.487 228.700 C 105.578 228.095,105.578 227.105,105.487 226.500 C 105.395 225.895,105.320 226.390,105.320 227.600 M231.055 229.400 C 231.980 230.979,232.000 231.003,232.000 230.511 C 232.000 230.279,231.629 229.664,231.176 229.144 L 230.353 228.200 231.055 229.400 M103.600 238.200 C 103.326 238.530,103.254 238.800,103.440 238.800 C 103.626 238.800,103.375 239.082,102.882 239.427 C 102.390 239.772,102.090 240.222,102.217 240.427 C 102.344 240.632,102.237 240.800,101.981 240.800 C 101.724 240.800,101.617 241.067,101.742 241.394 C 101.877 241.744,101.644 242.162,101.174 242.414 C 100.736 242.648,100.500 243.039,100.651 243.282 C 100.811 243.541,100.741 243.611,100.482 243.451 C 99.981 243.141,99.221 244.358,99.475 245.063 C 99.567 245.318,99.425 245.661,99.159 245.825 C 98.830 246.028,98.774 245.944,98.982 245.562 C 99.150 245.253,98.825 245.540,98.258 246.200 C 97.287 247.332,97.067 247.782,97.300 248.164 C 97.844 249.054,94.995 250.000,91.770 250.000 C 89.843 250.000,88.370 250.103,88.496 250.230 C 88.623 250.356,92.343 250.330,96.763 250.172 L 104.800 249.884 104.800 243.742 C 104.800 237.758,104.628 236.962,103.600 238.200 M205.725 239.066 C 206.437 239.903,206.419 239.949,204.690 241.729 C 202.567 243.913,200.941 247.202,199.212 252.809 C 197.322 258.937,196.985 260.181,196.024 264.600 C 195.546 266.800,194.985 269.320,194.778 270.200 C 194.570 271.080,194.212 273.046,193.982 274.568 C 193.751 276.091,193.491 277.453,193.404 277.594 C 193.248 277.846,192.082 290.612,192.069 292.200 C 192.063 292.963,192.261 292.991,196.307 292.800 L 200.551 292.600 201.039 290.800 C 201.308 289.810,201.749 288.370,202.019 287.600 C 203.122 284.452,203.570 282.920,203.831 281.400 C 203.982 280.520,204.216 279.620,204.353 279.400 C 204.728 278.793,206.516 270.241,207.321 265.200 C 207.584 263.550,207.920 262.016,208.067 261.791 C 208.214 261.567,208.449 259.407,208.590 256.991 C 208.731 254.576,208.916 251.813,209.000 250.852 C 209.413 246.156,207.841 240.411,205.687 238.745 C 205.099 238.290,205.104 238.336,205.725 239.066 M235.867 241.200 C 236.248 243.301,236.836 244.522,236.542 242.600 C 236.408 241.720,236.144 240.730,235.956 240.400 C 235.748 240.035,235.713 240.349,235.867 241.200 M237.351 252.400 C 237.351 254.930,237.416 255.965,237.496 254.700 C 237.575 253.435,237.575 251.365,237.496 250.100 C 237.416 248.835,237.351 249.870,237.351 252.400 M146.142 255.800 C 146.141 257.780,146.208 258.640,146.292 257.712 C 146.376 256.784,146.377 255.164,146.295 254.112 C 146.212 253.060,146.143 253.820,146.142 255.800 M237.337 260.600 C 237.339 262.360,237.409 263.030,237.493 262.089 C 237.578 261.149,237.577 259.709,237.491 258.889 C 237.405 258.070,237.336 258.840,237.337 260.600 M330.658 260.400 C 330.975 262.125,331.202 262.451,331.194 261.167 C 331.191 260.635,331.011 259.930,330.794 259.600 C 330.518 259.178,330.477 259.415,330.658 260.400 M331.858 266.800 C 332.175 268.525,332.402 268.851,332.394 267.567 C 332.391 267.035,332.211 266.330,331.994 266.000 C 331.718 265.578,331.677 265.815,331.858 266.800 M236.059 271.400 C 236.020 272.060,235.896 273.050,235.783 273.600 L 235.577 274.600 236.008 273.614 C 236.244 273.072,236.368 272.082,236.283 271.414 L 236.128 270.200 236.059 271.400 M134.189 282.600 L 134.200 293.000 135.800 293.034 L 137.400 293.068 135.907 292.912 L 134.413 292.755 134.296 282.477 L 134.179 272.200 134.189 282.600 M233.673 282.873 C 233.435 283.809,233.310 284.643,233.394 284.727 C 233.478 284.812,233.751 284.124,234.000 283.200 C 234.249 282.276,234.374 281.441,234.279 281.345 C 234.183 281.250,233.910 281.937,233.673 282.873 M184.524 286.200 C 184.526 287.520,184.601 288.012,184.690 287.293 C 184.779 286.574,184.777 285.494,184.686 284.893 C 184.595 284.292,184.522 284.880,184.524 286.200 M189.700 293.476 C 190.085 293.576,190.715 293.576,191.100 293.476 C 191.485 293.375,191.170 293.293,190.400 293.293 C 189.630 293.293,189.315 293.375,189.700 293.476 M330.800 305.157 C 330.470 305.351,328.771 305.626,327.023 305.769 C 325.276 305.912,323.643 306.199,323.393 306.406 C 323.144 306.613,322.233 306.894,321.370 307.031 C 320.506 307.168,319.690 307.457,319.555 307.674 C 319.421 307.891,319.151 308.076,318.955 308.085 C 316.263 308.212,314.128 312.606,316.200 313.756 C 316.640 314.000,317.090 314.312,317.200 314.449 C 317.535 314.866,321.116 316.400,321.754 316.400 C 322.084 316.400,322.455 316.566,322.581 316.769 C 322.706 316.971,324.022 317.263,325.504 317.417 C 326.987 317.571,328.380 317.827,328.600 317.985 C 329.616 318.717,346.031 318.715,347.800 317.983 C 348.240 317.801,349.817 317.536,351.304 317.394 C 352.791 317.252,353.905 316.970,353.780 316.768 C 353.655 316.565,353.920 316.400,354.368 316.400 C 355.491 316.400,358.503 315.204,359.044 314.543 C 359.288 314.244,359.693 314.000,359.944 314.000 C 360.195 314.000,360.400 313.730,360.400 313.400 C 360.400 313.070,360.580 312.800,360.800 312.800 C 362.406 312.800,360.226 309.078,358.188 308.341 C 357.425 308.065,356.800 307.706,356.800 307.544 C 356.800 307.382,355.945 307.123,354.900 306.969 C 353.855 306.815,352.906 306.545,352.792 306.369 C 352.167 305.411,332.241 304.313,330.800 305.157 M92.715 312.218 C 92.573 312.361,91.543 312.470,90.428 312.462 C 89.313 312.453,88.400 312.616,88.400 312.823 C 88.400 313.030,87.725 313.206,86.900 313.214 C 86.075 313.221,84.680 313.575,83.800 314.000 C 82.920 314.425,82.003 314.779,81.762 314.786 C 80.949 314.812,80.000 316.255,80.000 317.468 C 80.000 319.437,82.779 320.700,89.800 321.922 C 91.986 322.302,108.217 322.275,110.200 321.888 C 111.080 321.716,112.479 321.467,113.309 321.335 C 114.139 321.203,114.916 320.936,115.037 320.741 C 115.157 320.546,115.434 320.498,115.653 320.633 C 115.872 320.768,116.399 320.563,116.825 320.177 C 117.251 319.792,117.600 319.625,117.600 319.808 C 117.600 319.990,118.050 319.717,118.600 319.200 C 119.633 318.230,119.893 316.672,119.200 315.600 C 118.987 315.270,118.809 315.148,118.806 315.329 C 118.803 315.509,118.517 315.374,118.171 315.029 C 117.826 314.683,117.211 314.400,116.805 314.400 C 116.399 314.400,116.007 314.230,115.933 314.023 C 115.860 313.815,114.900 313.526,113.800 313.380 C 112.700 313.234,111.620 313.004,111.400 312.868 C 111.180 312.733,110.730 312.554,110.400 312.470 C 109.292 312.188,92.977 311.956,92.715 312.218 " stroke="none" fill="#82b0f1" fill-rule="evenodd"></path><path id="path2" d="M37.959 53.221 C 37.161 53.634,36.855 53.987,37.142 54.164 C 37.394 54.320,37.600 54.237,37.600 53.981 C 37.600 53.712,37.879 53.622,38.258 53.767 C 38.628 53.909,39.241 53.725,39.658 53.348 C 40.066 52.978,40.400 52.854,40.400 53.071 C 40.400 53.669,41.535 53.545,41.775 52.921 C 42.065 52.165,39.633 52.356,37.959 53.221 M44.400 52.704 C 44.400 53.531,45.920 53.949,46.122 53.178 C 46.282 52.567,46.119 52.400,45.363 52.400 C 44.833 52.400,44.400 52.537,44.400 52.704 M36.006 55.725 C 36.011 56.358,36.106 56.452,36.351 56.066 C 36.537 55.772,36.845 55.561,37.035 55.596 C 37.225 55.631,37.432 55.505,37.495 55.315 C 37.558 55.126,37.247 54.944,36.805 54.910 C 36.224 54.867,36.002 55.093,36.006 55.725 M36.300 56.676 C 35.443 56.900,35.380 57.830,36.200 58.145 C 36.530 58.271,36.800 58.201,36.800 57.987 C 36.800 57.774,36.586 57.600,36.324 57.600 C 36.061 57.600,36.196 57.336,36.624 57.013 C 37.438 56.396,37.425 56.382,36.300 56.676 M36.400 61.157 C 36.400 61.427,36.220 61.536,36.000 61.400 C 35.780 61.264,35.600 61.472,35.600 61.862 C 35.600 62.528,35.641 62.530,36.276 61.895 C 36.648 61.523,36.828 61.095,36.676 60.943 C 36.524 60.791,36.400 60.887,36.400 61.157 M36.400 64.024 C 36.400 64.257,36.220 64.336,36.000 64.200 C 35.780 64.064,35.600 64.143,35.600 64.376 C 35.600 64.609,35.774 64.800,35.987 64.800 C 36.201 64.800,36.262 65.115,36.124 65.500 C 35.986 65.885,36.027 66.059,36.215 65.887 C 36.404 65.716,36.786 65.986,37.065 66.487 C 37.377 67.050,37.572 67.170,37.573 66.800 C 37.574 66.470,37.323 65.868,37.015 65.461 C 36.707 65.055,36.552 64.470,36.670 64.161 C 36.789 63.853,36.776 63.600,36.643 63.600 C 36.509 63.600,36.400 63.791,36.400 64.024 M44.800 67.513 C 44.800 67.781,44.244 67.905,43.400 67.823 C 42.630 67.748,42.000 67.848,42.000 68.044 C 42.000 68.240,41.730 68.400,41.400 68.400 C 41.070 68.400,40.800 68.580,40.800 68.800 C 40.800 69.290,42.270 69.334,42.567 68.854 C 42.685 68.663,43.210 68.589,43.734 68.689 C 44.633 68.861,45.564 67.830,45.009 67.276 C 44.894 67.161,44.800 67.267,44.800 67.513 M38.406 68.450 C 38.402 68.878,38.741 69.100,39.400 69.100 C 39.950 69.100,40.400 68.958,40.400 68.785 C 40.400 68.612,40.085 68.519,39.700 68.579 C 39.315 68.638,38.868 68.487,38.706 68.243 C 38.519 67.961,38.410 68.037,38.406 68.450 M109.790 133.854 C 109.575 133.916,107.060 134.162,104.200 134.399 C 101.340 134.636,98.460 134.899,97.800 134.984 C 97.140 135.068,94.353 135.344,91.606 135.597 C 88.859 135.850,86.519 136.202,86.406 136.380 C 86.293 136.557,85.435 136.830,84.500 136.986 C 83.565 137.142,82.800 137.434,82.800 137.635 C 82.800 137.836,82.524 138.000,82.187 138.000 C 81.851 138.000,81.471 138.270,81.345 138.600 C 81.218 138.930,80.954 139.200,80.757 139.200 C 80.272 139.200,78.998 140.508,78.682 141.331 C 78.541 141.699,78.259 142.000,78.056 142.000 C 77.853 142.000,77.563 142.493,77.412 143.096 C 77.260 143.699,76.926 144.322,76.668 144.482 C 76.042 144.869,76.030 154.321,76.656 154.719 C 76.898 154.874,77.325 156.618,77.603 158.596 C 77.882 160.574,78.336 162.374,78.612 162.596 C 78.889 162.818,79.307 164.080,79.543 165.400 C 79.778 166.720,80.436 170.050,81.006 172.800 C 81.576 175.550,82.578 180.410,83.232 183.600 C 85.776 195.998,85.534 195.533,88.600 193.932 C 89.260 193.588,91.870 192.625,94.400 191.794 C 96.930 190.962,99.270 190.152,99.600 189.995 C 100.405 189.611,100.369 185.579,99.492 178.000 C 99.123 174.810,98.630 170.400,98.397 168.200 C 98.163 166.000,97.806 163.660,97.603 163.000 C 97.043 161.175,96.992 156.448,97.528 155.912 C 97.878 155.562,99.477 155.566,104.095 155.927 C 107.453 156.189,113.350 156.424,117.200 156.449 C 121.050 156.473,125.370 156.607,126.800 156.747 L 129.400 157.000 129.705 160.400 C 130.053 164.279,130.622 168.471,132.717 182.600 L 134.200 192.600 134.257 219.000 C 134.321 248.680,134.293 247.396,134.846 246.008 C 135.378 244.677,136.306 243.683,138.062 242.567 C 139.224 241.829,139.580 241.304,139.799 240.005 L 140.075 238.371 148.138 238.401 C 152.572 238.417,156.515 238.423,156.900 238.415 C 157.745 238.397,157.843 235.154,157.203 228.400 C 156.984 226.090,156.617 220.780,156.387 216.600 C 156.157 212.420,155.706 204.680,155.386 199.400 C 155.066 194.120,154.533 184.760,154.201 178.600 C 153.870 172.440,153.422 165.780,153.207 163.800 C 152.991 161.820,152.811 157.860,152.808 155.000 C 152.804 152.140,152.621 147.910,152.402 145.600 C 152.182 143.290,151.898 140.026,151.771 138.347 L 151.540 135.293 150.270 135.618 C 143.381 137.383,123.210 137.123,116.000 135.177 C 111.912 134.073,110.251 133.719,109.790 133.854 M308.699 190.572 C 307.214 190.845,305.904 191.163,305.787 191.279 C 305.557 191.509,306.198 196.424,306.794 199.000 C 306.998 199.880,307.548 202.670,308.017 205.200 C 308.486 207.730,309.381 212.410,310.006 215.600 C 310.631 218.790,311.520 223.470,311.983 226.000 C 312.445 228.530,312.991 231.320,313.196 232.200 C 313.401 233.080,313.676 234.430,313.806 235.200 C 313.936 235.970,314.220 237.410,314.437 238.400 C 314.944 240.713,317.600 254.305,317.600 254.586 C 317.600 255.222,324.058 254.102,324.828 253.332 C 325.155 253.005,325.160 252.306,324.846 250.742 C 324.609 249.564,324.045 246.710,323.591 244.400 C 323.137 242.090,322.599 239.480,322.395 238.600 C 322.190 237.720,321.643 234.930,321.179 232.400 C 320.715 229.870,319.543 223.750,318.575 218.800 C 316.465 208.009,315.878 204.900,314.759 198.600 C 313.122 189.386,313.370 189.714,308.699 190.572 M216.600 217.295 C 223.376 219.732,229.664 225.603,232.988 232.600 C 236.548 240.091,237.181 243.153,237.457 254.200 C 237.748 265.844,236.362 274.900,231.869 290.700 L 231.272 292.800 235.188 292.800 L 239.103 292.800 239.811 290.100 C 240.201 288.615,240.858 286.140,241.272 284.600 C 250.840 248.997,242.607 224.059,219.137 217.556 C 216.218 216.747,214.619 216.582,216.600 217.295 M104.479 224.131 C 103.699 226.290,98.871 234.171,93.452 242.131 C 90.674 246.213,88.400 249.661,88.400 249.792 C 88.400 249.923,90.062 249.978,92.094 249.915 L 95.787 249.800 99.882 243.800 C 105.516 235.545,105.067 236.745,105.296 229.300 C 105.498 222.706,105.345 221.738,104.479 224.131 M283.841 234.400 C 283.417 236.340,282.009 240.855,281.566 241.695 C 281.365 242.077,281.200 242.583,281.200 242.820 C 281.200 243.057,280.775 244.185,280.255 245.326 C 277.620 251.109,272.656 263.189,272.839 263.373 C 273.229 263.762,288.800 260.518,288.800 260.047 C 288.800 259.910,288.419 257.909,287.954 255.599 C 287.031 251.017,286.334 246.876,285.395 240.400 C 285.060 238.090,284.642 235.480,284.467 234.600 L 284.147 233.000 283.841 234.400 M199.320 238.405 C 197.306 239.216,192.800 245.345,192.800 247.274 C 192.800 247.497,192.546 248.246,192.235 248.940 C 191.492 250.597,189.784 256.558,188.608 261.600 C 185.534 274.780,183.474 291.967,184.863 292.847 C 185.158 293.035,186.885 293.191,188.700 293.194 C 191.925 293.200,192.257 293.064,192.027 291.838 C 191.924 291.293,193.220 277.892,193.404 277.594 C 193.491 277.453,193.751 276.091,193.982 274.568 C 194.212 273.046,194.570 271.080,194.778 270.200 C 194.985 269.320,195.546 266.800,196.024 264.600 C 196.985 260.181,197.322 258.937,199.212 252.809 C 200.947 247.181,202.568 243.912,204.721 241.697 L 206.511 239.855 205.433 238.927 C 204.283 237.938,201.147 237.670,199.320 238.405 M146.600 250.698 C 146.351 250.886,146.200 254.935,146.200 261.400 L 146.200 271.800 149.907 271.915 L 153.613 272.030 153.507 261.315 L 153.400 250.600 150.200 250.498 C 148.440 250.441,146.820 250.531,146.600 250.698 M334.400 252.068 C 330.297 252.851,329.579 253.171,329.795 254.117 C 329.906 254.603,330.186 256.080,330.417 257.400 C 330.649 258.720,331.093 261.150,331.405 262.800 C 331.717 264.450,332.224 267.150,332.532 268.800 C 333.636 274.711,333.279 274.412,337.951 273.357 C 341.131 272.638,341.037 272.820,340.219 268.949 C 339.899 267.437,339.059 263.140,338.352 259.400 C 336.882 251.621,336.869 251.597,334.400 252.068 M134.400 282.564 L 134.400 292.728 137.766 293.009 C 142.348 293.390,142.000 294.248,142.000 282.576 L 142.000 272.400 138.200 272.400 L 134.400 272.400 134.400 282.564 M327.200 275.821 C 326.870 275.891,325.790 276.056,324.800 276.186 C 321.965 276.560,321.934 276.614,322.570 280.020 C 322.876 281.659,323.531 285.205,324.025 287.900 L 324.923 292.800 328.914 292.800 L 332.905 292.800 332.673 291.500 C 332.111 288.356,330.254 278.936,329.794 276.900 C 329.501 275.606,329.062 275.423,327.200 275.821 " stroke="none" fill="#38bbe4" fill-rule="evenodd"></path><path id="path3" d="M46.868 55.048 C 47.813 58.646,47.743 61.805,46.644 65.211 C 45.360 69.194,45.341 68.942,46.900 68.636 C 48.527 68.316,50.053 68.111,54.600 67.599 C 59.571 67.040,60.115 66.960,60.800 66.691 C 61.130 66.561,62.975 66.337,64.900 66.192 C 67.437 66.001,68.400 65.780,68.400 65.389 C 68.400 65.075,68.937 64.798,69.690 64.725 C 70.853 64.612,71.011 64.437,71.306 62.935 C 71.711 60.876,72.408 60.250,73.928 60.584 C 75.258 60.876,77.600 62.997,77.600 63.909 C 77.600 64.445,77.694 64.439,78.331 63.862 C 78.975 63.280,80.393 63.200,90.131 63.200 L 101.200 63.200 101.200 60.800 C 101.200 59.480,101.245 58.265,101.300 58.100 C 101.355 57.935,96.038 57.710,89.485 57.600 C 81.937 57.473,77.465 57.248,77.285 56.985 C 77.128 56.757,76.370 56.525,75.600 56.469 C 73.905 56.345,66.669 55.637,65.000 55.432 C 64.340 55.350,62.630 55.167,61.200 55.025 C 59.770 54.882,57.970 54.650,57.200 54.508 C 56.430 54.367,54.990 54.199,54.000 54.135 C 53.010 54.071,50.909 53.902,49.330 53.758 L 46.461 53.497 46.868 55.048 M107.100 62.689 C 107.815 62.778,108.985 62.778,109.700 62.689 C 110.415 62.601,109.830 62.528,108.400 62.528 C 106.970 62.528,106.385 62.601,107.100 62.689 M97.274 158.300 L 97.348 160.600 97.494 158.515 L 97.641 156.429 101.320 156.298 L 105.000 156.166 101.100 156.083 L 97.200 156.000 97.274 158.300 M111.907 156.690 C 112.626 156.779,113.706 156.777,114.307 156.686 C 114.908 156.595,114.320 156.522,113.000 156.524 C 111.680 156.526,111.188 156.601,111.907 156.690 M120.400 157.065 C 124.765 157.358,129.111 157.375,128.940 157.100 C 128.837 156.935,126.468 156.832,123.676 156.872 C 120.884 156.912,119.410 156.999,120.400 157.065 M97.734 162.000 L 97.800 163.000 113.795 163.000 C 128.804 163.000,129.793 162.956,129.854 162.292 C 129.899 161.797,129.862 161.767,129.730 162.192 C 129.565 162.722,127.533 162.800,113.798 162.800 L 98.056 162.800 97.862 161.900 C 97.692 161.107,97.677 161.119,97.734 162.000 M55.806 163.300 C 55.647 163.795,55.456 164.380,55.380 164.600 C 55.303 164.820,55.127 165.720,54.987 166.600 C 54.846 167.480,54.632 168.470,54.510 168.800 C 54.208 169.619,54.118 170.112,53.595 173.800 C 53.346 175.560,52.997 177.277,52.820 177.616 C 52.643 177.955,52.368 179.531,52.208 181.118 C 52.049 182.705,51.772 184.094,51.593 184.204 C 51.414 184.315,51.141 185.754,50.987 187.403 C 50.832 189.051,50.568 190.400,50.400 190.400 C 50.231 190.400,49.968 191.568,49.815 192.996 C 49.662 194.423,49.392 195.681,49.215 195.791 C 49.037 195.900,48.767 196.826,48.614 197.847 C 48.461 198.869,48.184 200.086,48.000 200.552 C 47.710 201.285,45.507 208.245,45.388 208.800 C 45.346 209.000,43.579 212.911,42.677 214.800 C 42.077 216.058,37.328 223.119,36.339 224.226 C 35.932 224.680,35.600 225.154,35.600 225.279 C 35.600 225.404,34.925 226.209,34.100 227.068 C 33.275 227.927,31.340 230.032,29.800 231.746 C 28.260 233.459,26.633 235.253,26.184 235.731 C 24.529 237.495,21.371 241.121,20.400 242.372 C 19.850 243.081,19.085 244.035,18.700 244.492 C 18.315 244.949,18.000 245.565,18.000 245.861 C 18.000 246.158,17.846 246.400,17.658 246.400 C 17.354 246.400,14.373 252.138,13.607 254.200 C 11.838 258.956,11.800 259.241,11.800 267.600 C 11.800 272.110,11.964 276.160,12.165 276.600 C 12.618 277.590,12.602 277.543,12.960 279.000 C 13.425 280.894,15.899 286.265,16.700 287.122 C 16.975 287.417,17.200 287.914,17.200 288.229 C 17.200 288.543,17.368 288.800,17.573 288.800 C 17.778 288.800,18.052 289.134,18.182 289.542 C 18.311 289.950,18.948 290.805,19.597 291.442 C 20.247 292.079,20.783 292.825,20.789 293.100 C 20.801 293.633,31.200 293.869,31.200 293.336 C 31.200 293.190,30.235 291.789,29.055 290.222 C 26.766 287.180,24.460 282.939,23.499 280.000 C 23.175 279.010,22.688 277.570,22.417 276.800 C 22.146 276.030,21.835 272.700,21.726 269.400 C 21.256 255.175,24.538 248.468,40.219 231.600 C 49.233 221.905,53.894 214.505,56.597 205.600 C 56.964 204.390,57.427 202.994,57.625 202.497 C 58.159 201.160,60.333 192.063,61.022 188.285 C 61.351 186.478,61.900 183.470,62.241 181.600 C 62.583 179.730,63.033 177.210,63.241 176.000 C 63.625 173.771,64.463 169.991,65.455 166.016 C 66.412 162.180,66.680 162.400,61.047 162.400 C 56.262 162.400,56.084 162.431,55.806 163.300 M262.000 180.400 C 261.230 180.562,279.251 180.718,302.046 180.747 L 343.491 180.800 344.457 182.300 C 348.601 188.740,350.931 194.943,352.219 202.969 C 352.834 206.797,352.878 208.655,352.577 217.969 C 351.889 239.280,352.391 244.416,355.845 251.403 C 358.179 256.125,359.707 257.664,372.310 267.990 C 379.605 273.966,383.354 281.775,382.397 289.000 C 381.726 294.068,381.262 293.600,386.956 293.600 L 391.912 293.600 392.180 292.100 C 392.719 289.085,392.893 282.800,392.437 282.800 C 392.197 282.800,392.000 282.310,392.000 281.711 C 392.000 280.642,389.427 274.986,388.584 274.200 C 388.348 273.980,387.694 273.170,387.132 272.400 C 385.725 270.474,382.983 267.781,380.921 266.300 C 379.975 265.621,379.200 264.915,379.200 264.732 C 379.200 264.549,379.005 264.400,378.767 264.400 C 377.617 264.400,368.302 255.583,367.808 254.026 C 367.664 253.572,367.398 253.200,367.216 253.200 C 367.035 253.200,366.774 252.750,366.636 252.200 C 366.498 251.650,366.222 251.200,366.024 251.200 C 365.826 251.200,365.545 250.660,365.400 250.000 C 365.255 249.340,364.991 248.800,364.814 248.800 C 364.636 248.800,364.369 247.990,364.221 247.000 C 364.072 246.010,363.807 245.200,363.630 245.200 C 362.736 245.200,362.367 236.244,362.621 220.676 C 362.795 209.999,362.741 203.861,362.461 202.400 C 361.542 197.599,361.116 195.783,360.817 195.400 C 360.645 195.180,360.383 194.325,360.234 193.500 C 360.085 192.675,359.811 192.000,359.625 192.000 C 359.439 192.000,359.171 191.505,359.030 190.900 C 358.747 189.694,357.557 187.120,357.132 186.796 C 356.984 186.684,356.740 186.099,356.588 185.496 C 356.437 184.893,356.153 184.400,355.957 184.400 C 355.760 184.400,355.600 184.158,355.600 183.861 C 355.600 183.565,355.285 182.952,354.900 182.499 C 354.515 182.045,353.935 181.298,353.612 180.837 L 353.023 180.000 308.212 180.053 C 283.565 180.082,262.770 180.238,262.000 180.400 M133.709 194.800 C 133.709 195.790,133.787 196.195,133.882 195.700 C 133.978 195.205,133.978 194.395,133.882 193.900 C 133.787 193.405,133.709 193.810,133.709 194.800 M105.714 226.600 C 105.717 227.700,105.795 228.103,105.887 227.495 C 105.979 226.886,105.977 225.986,105.882 225.495 C 105.787 225.003,105.711 225.500,105.714 226.600 M283.189 234.440 C 282.946 235.343,282.838 236.171,282.948 236.281 C 283.058 236.392,283.271 235.831,283.420 235.035 C 283.569 234.240,283.986 233.417,284.346 233.207 C 284.943 232.857,284.941 232.823,284.315 232.812 C 283.848 232.804,283.491 233.321,283.189 234.440 M133.760 240.200 C 133.761 243.500,133.822 244.797,133.898 243.082 C 133.973 241.367,133.972 238.667,133.897 237.082 C 133.821 235.497,133.759 236.900,133.760 240.200 M105.290 242.700 L 105.200 250.000 102.900 250.001 C 101.635 250.002,97.734 250.122,94.232 250.267 C 88.070 250.522,87.874 250.506,88.156 249.765 C 88.378 249.181,88.336 249.110,87.979 249.465 C 86.837 250.597,88.110 250.800,96.324 250.794 C 100.876 250.791,104.829 250.642,105.109 250.465 C 105.499 250.217,105.591 248.408,105.500 242.771 L 105.381 235.400 105.290 242.700 M282.046 238.439 C 281.801 239.143,281.613 239.918,281.628 240.160 C 281.644 240.402,281.914 239.896,282.230 239.035 C 282.545 238.174,282.733 237.400,282.648 237.315 C 282.562 237.229,282.292 237.735,282.046 238.439 M285.263 237.800 C 285.254 238.240,285.395 239.320,285.577 240.200 L 285.908 241.800 285.914 240.400 C 285.917 239.630,285.776 238.550,285.600 238.000 C 285.341 237.191,285.277 237.153,285.263 237.800 M207.207 240.276 C 207.203 240.538,207.377 240.862,207.594 240.996 C 207.810 241.130,208.263 242.085,208.601 243.120 C 209.081 244.590,209.169 244.702,209.004 243.632 C 208.797 242.289,207.220 239.344,207.207 240.276 M280.844 242.044 C 280.598 242.751,280.466 243.400,280.552 243.485 C 280.638 243.571,280.909 243.062,281.156 242.356 C 281.402 241.649,281.534 241.000,281.448 240.915 C 281.362 240.829,281.091 241.338,280.844 242.044 M286.672 247.000 C 286.799 248.100,286.969 249.075,287.051 249.167 C 287.332 249.482,287.120 246.999,286.780 246.000 C 286.551 245.326,286.516 245.651,286.672 247.000 M278.465 247.817 C 277.795 249.288,277.923 249.602,278.647 248.265 C 278.986 247.640,279.188 247.054,279.096 246.963 C 279.005 246.871,278.721 247.256,278.465 247.817 M276.844 251.644 C 276.598 252.351,276.466 253.000,276.552 253.085 C 276.638 253.171,276.909 252.662,277.156 251.956 C 277.402 251.249,277.534 250.600,277.448 250.515 C 277.362 250.429,277.091 250.938,276.844 251.644 M287.646 252.800 C 287.665 253.130,287.824 253.850,288.000 254.400 L 288.320 255.400 288.354 254.400 C 288.373 253.850,288.213 253.130,288.000 252.800 C 287.655 252.267,287.616 252.267,287.646 252.800 M275.579 254.655 C 275.358 255.236,275.252 255.785,275.343 255.876 C 275.433 255.967,275.699 255.492,275.933 254.820 C 276.453 253.328,276.139 253.182,275.579 254.655 M62.524 257.000 C 62.526 258.320,62.601 258.812,62.690 258.093 C 62.779 257.374,62.777 256.294,62.686 255.693 C 62.595 255.092,62.522 255.680,62.524 257.000 M208.658 258.759 C 208.507 260.386,208.461 261.795,208.557 261.890 C 208.806 262.139,209.321 256.963,209.110 256.330 C 209.013 256.039,208.810 257.132,208.658 258.759 M274.465 257.417 C 273.795 258.888,273.923 259.202,274.647 257.865 C 274.986 257.240,275.188 256.654,275.096 256.563 C 275.005 256.471,274.721 256.856,274.465 257.417 M289.001 259.309 C 289.177 260.200,289.041 260.490,288.310 260.784 C 287.701 261.029,287.615 261.158,288.051 261.175 C 289.122 261.216,289.673 260.243,289.197 259.152 C 288.799 258.239,288.791 258.245,289.001 259.309 M273.265 260.217 C 272.595 261.688,272.723 262.002,273.447 260.665 C 273.786 260.040,273.988 259.454,273.896 259.363 C 273.805 259.271,273.521 259.656,273.265 260.217 M284.200 261.600 C 283.111 261.877,283.093 261.907,284.000 261.925 C 284.550 261.935,285.360 261.789,285.800 261.600 C 286.786 261.176,285.866 261.176,284.200 261.600 M272.187 262.840 C 271.825 263.981,272.509 264.616,273.461 264.022 C 274.114 263.615,274.089 263.592,273.246 263.825 C 272.377 264.065,272.315 263.994,272.553 263.044 C 272.865 261.801,272.569 261.636,272.187 262.840 M278.200 262.800 C 277.111 263.077,277.093 263.107,278.000 263.125 C 278.550 263.135,279.360 262.989,279.800 262.800 C 280.786 262.376,279.866 262.376,278.200 262.800 M207.400 266.400 C 207.245 267.528,207.208 268.541,207.318 268.651 C 207.428 268.761,207.645 267.928,207.800 266.800 C 207.955 265.672,207.992 264.659,207.882 264.549 C 207.772 264.439,207.555 265.272,207.400 266.400 M206.070 273.174 C 205.819 274.589,205.685 275.818,205.772 275.905 C 206.018 276.152,206.881 271.643,206.694 271.091 C 206.602 270.821,206.321 271.758,206.070 273.174 M142.500 272.287 C 143.105 272.378,144.095 272.378,144.700 272.287 C 145.305 272.195,144.810 272.120,143.600 272.120 C 142.390 272.120,141.895 272.195,142.500 272.287 M105.328 274.800 C 105.328 276.230,105.401 276.815,105.489 276.100 C 105.578 275.385,105.578 274.215,105.489 273.500 C 105.401 272.785,105.328 273.370,105.328 274.800 M205.002 278.100 C 204.858 278.815,204.655 279.760,204.551 280.200 C 204.404 280.820,204.445 280.865,204.730 280.400 C 205.149 279.716,205.732 276.800,205.450 276.800 C 205.347 276.800,205.146 277.385,205.002 278.100 M184.893 278.800 C 184.893 279.570,184.975 279.885,185.076 279.500 C 185.176 279.115,185.176 278.485,185.076 278.100 C 184.975 277.715,184.893 278.030,184.893 278.800 M203.673 283.273 C 203.435 284.209,203.310 285.043,203.394 285.127 C 203.478 285.212,203.751 284.524,204.000 283.600 C 204.249 282.676,204.374 281.841,204.279 281.745 C 204.183 281.650,203.910 282.337,203.673 283.273 M202.400 287.400 C 202.136 288.199,202.015 288.948,202.131 289.064 C 202.247 289.180,202.530 288.593,202.760 287.760 C 203.303 285.792,203.023 285.512,202.400 287.400 M184.101 291.000 C 184.105 291.880,184.187 292.193,184.283 291.695 C 184.379 291.198,184.375 290.478,184.275 290.095 C 184.175 289.713,184.096 290.120,184.101 291.000 M201.197 291.010 C 200.618 292.764,201.017 293.335,202.651 293.091 C 203.781 292.923,203.779 292.919,202.500 292.860 C 201.086 292.795,200.993 292.597,201.611 290.971 C 201.837 290.376,201.945 289.812,201.851 289.718 C 201.757 289.623,201.462 290.205,201.197 291.010 M301.505 293.083 C 302.002 293.179,302.722 293.175,303.105 293.075 C 303.487 292.975,303.080 292.896,302.200 292.901 C 301.320 292.905,301.007 292.987,301.505 293.083 M96.600 304.451 C 94.840 304.654,90.610 304.988,87.200 305.194 C 83.790 305.400,80.820 305.583,80.600 305.602 C 80.380 305.621,78.715 305.512,76.900 305.361 C 74.769 305.183,73.600 305.228,73.600 305.488 C 73.600 306.012,76.509 306.400,80.432 306.400 C 82.149 306.400,83.648 306.554,83.764 306.741 C 83.880 306.929,87.438 307.213,91.670 307.372 C 95.903 307.530,99.643 307.808,99.983 307.987 C 100.322 308.167,102.718 308.445,105.306 308.605 C 107.895 308.766,110.098 309.036,110.204 309.206 C 110.309 309.376,112.016 309.643,113.997 309.800 C 115.979 309.957,117.600 310.225,117.600 310.396 C 117.600 310.567,118.768 310.832,120.196 310.985 C 121.623 311.138,122.894 311.429,123.019 311.631 C 123.145 311.834,123.608 312.000,124.049 312.000 C 125.460 312.000,128.956 313.717,130.358 315.098 C 131.973 316.689,131.743 317.502,129.017 319.848 C 126.665 321.873,126.483 322.000,125.943 322.000 C 124.773 322.000,114.393 327.152,114.118 327.869 C 114.006 328.161,113.704 328.400,113.446 328.400 C 112.926 328.400,111.600 329.809,111.600 330.362 C 111.600 330.556,111.347 330.812,111.038 330.930 C 110.728 331.049,110.355 331.696,110.207 332.368 C 110.059 333.041,109.772 333.694,109.569 333.819 C 108.016 334.779,109.655 340.641,111.780 341.728 C 114.119 342.923,116.760 344.000,117.354 344.000 C 117.684 344.000,118.051 344.159,118.171 344.354 C 118.292 344.548,119.247 344.834,120.295 344.989 C 121.343 345.144,123.148 345.516,124.306 345.815 C 125.464 346.114,127.984 346.472,129.906 346.609 C 131.828 346.746,133.760 347.018,134.200 347.213 C 134.961 347.550,141.664 348.036,155.800 348.780 C 164.091 349.217,214.507 349.209,225.400 348.769 C 238.458 348.242,248.187 347.561,248.333 347.163 C 248.407 346.963,249.204 346.800,250.106 346.800 C 252.608 346.800,258.951 345.945,259.380 345.550 C 259.589 345.358,260.234 345.200,260.813 345.200 C 264.422 345.200,271.899 341.631,273.137 339.318 C 274.731 336.340,270.806 328.464,267.700 328.409 C 267.425 328.404,267.200 328.214,267.200 327.987 C 267.200 327.760,266.885 327.445,266.500 327.287 C 266.115 327.129,264.188 325.945,262.218 324.656 C 260.247 323.367,258.360 322.206,258.023 322.077 C 255.909 321.266,254.776 318.695,256.431 318.466 C 256.964 318.393,257.571 318.168,257.780 317.966 C 258.262 317.501,262.681 317.484,262.966 317.945 C 263.084 318.136,265.642 318.421,268.652 318.581 C 271.662 318.740,274.411 319.032,274.762 319.229 C 276.269 320.075,298.593 321.167,299.329 320.431 C 299.566 320.194,300.309 319.996,300.980 319.991 C 303.430 319.974,307.600 317.296,307.600 315.742 C 307.600 315.444,307.766 315.200,307.968 315.200 C 308.171 315.200,308.462 314.615,308.614 313.900 C 308.767 313.185,309.034 312.420,309.207 312.200 C 309.380 311.980,309.647 310.615,309.800 309.167 L 310.079 306.533 307.939 306.930 C 305.676 307.350,292.428 307.439,280.900 307.113 C 275.403 306.957,273.910 307.027,273.551 307.459 C 272.967 308.163,271.425 308.153,270.835 307.442 C 270.451 306.980,266.226 306.859,246.086 306.731 C 226.929 306.609,221.599 306.465,220.851 306.048 C 219.826 305.477,193.743 304.955,149.800 304.624 C 137.700 304.533,121.500 304.374,113.800 304.271 C 106.100 304.168,98.360 304.249,96.600 304.451 M225.657 332.797 C 238.281 334.769,236.692 338.210,222.431 339.783 C 209.312 341.230,192.832 339.708,190.207 336.808 C 186.720 332.954,209.887 330.333,225.657 332.797 " stroke="none" fill="#b3f2e8" fill-rule="evenodd"></path><path id="path4" d="M137.607 48.673 C 136.620 48.773,135.685 49.062,135.529 49.314 C 135.337 49.626,133.119 49.790,128.611 49.826 C 122.596 49.874,121.923 49.950,121.401 50.639 C 120.757 51.490,120.609 52.800,121.157 52.800 C 121.353 52.800,121.630 53.267,121.774 53.837 C 122.059 54.975,124.408 57.600,125.140 57.600 C 125.393 57.600,125.600 57.768,125.600 57.973 C 125.600 58.428,134.238 58.160,136.800 57.626 C 141.464 56.654,140.942 56.214,141.979 61.987 C 142.991 67.622,145.200 68.710,145.200 63.574 C 145.200 62.638,145.565 61.974,146.600 61.026 L 148.000 59.743 148.000 56.072 C 148.000 53.891,147.838 52.400,147.600 52.400 C 147.380 52.400,147.200 52.066,147.200 51.658 C 147.200 49.212,143.531 48.070,137.607 48.673 M104.100 58.935 L 101.600 59.270 101.600 60.891 L 101.600 62.511 103.700 62.259 C 104.855 62.120,106.745 62.005,107.900 62.003 C 109.712 62.000,110.000 61.893,110.000 61.223 C 110.000 60.795,110.386 60.175,110.858 59.845 L 111.715 59.244 110.758 59.040 C 108.890 58.641,106.568 58.604,104.100 58.935 M123.318 59.177 L 119.635 59.400 120.398 61.100 L 121.161 62.800 124.180 62.800 L 127.200 62.800 127.200 60.800 C 127.200 59.700,127.155 58.834,127.100 58.877 C 127.045 58.919,125.343 59.054,123.318 59.177 M252.000 161.600 C 252.000 161.820,251.790 162.000,251.534 162.000 C 251.277 162.000,250.782 162.265,250.434 162.589 C 247.766 165.067,247.136 165.600,246.872 165.600 C 246.557 165.600,244.558 167.170,242.925 168.700 C 242.396 169.195,241.818 169.600,241.640 169.600 C 241.462 169.600,240.863 170.005,240.307 170.500 C 239.204 171.483,236.810 173.359,234.200 175.282 C 233.980 175.445,233.279 176.032,232.642 176.589 C 232.004 177.145,231.374 177.603,231.242 177.606 C 230.726 177.620,228.502 179.845,228.247 180.602 C 228.099 181.041,226.372 182.570,224.408 184.000 L 220.838 186.600 218.782 192.200 C 217.651 195.280,215.827 200.320,214.729 203.400 C 213.630 206.480,212.209 210.350,211.570 212.000 C 210.327 215.210,210.509 216.000,212.489 216.000 C 212.894 216.000,213.297 215.775,213.385 215.500 C 213.944 213.759,218.551 201.164,219.024 200.086 C 219.341 199.364,219.600 198.581,219.600 198.347 C 219.600 198.113,219.852 197.354,220.159 196.660 C 220.467 195.967,221.197 194.050,221.783 192.400 C 223.083 188.736,225.048 186.609,230.663 182.787 C 232.072 181.828,239.383 176.278,239.600 176.002 C 240.002 175.491,254.104 164.735,254.644 164.528 C 255.240 164.299,255.423 163.200,254.864 163.200 C 254.680 163.200,254.323 162.750,254.073 162.200 C 253.631 161.229,252.000 160.757,252.000 161.600 M95.400 191.446 C 93.860 192.005,91.779 192.715,90.777 193.024 C 88.432 193.746,87.640 194.648,85.709 198.800 C 82.168 206.413,81.186 212.163,82.433 217.980 C 83.056 220.884,82.311 221.645,90.424 209.811 C 102.515 192.173,101.685 193.711,100.180 191.738 C 98.968 190.149,98.972 190.150,95.400 191.446 M140.000 239.140 C 140.000 240.384,139.151 242.400,138.628 242.400 C 136.857 242.400,134.400 246.271,134.400 249.060 L 134.400 250.400 141.035 250.400 L 147.669 250.400 151.427 246.944 C 154.524 244.096,155.224 243.234,155.409 242.044 C 155.533 241.250,155.711 240.105,155.807 239.500 L 155.980 238.400 147.990 238.400 C 140.481 238.400,140.000 238.445,140.000 239.140 " stroke="none" fill="#312863" fill-rule="evenodd"></path><path id="path5" d="M76.993 72.988 C 75.710 73.985,74.282 74.800,73.819 74.800 C 72.844 74.800,71.204 76.468,71.939 76.713 C 72.195 76.798,72.319 77.007,72.215 77.176 C 72.110 77.345,72.469 77.901,73.012 78.412 C 73.556 78.922,74.000 79.512,74.000 79.724 C 74.000 79.935,74.450 80.525,75.000 81.035 C 75.550 81.545,76.000 82.125,76.000 82.325 C 76.000 82.525,76.624 83.388,77.386 84.244 C 79.872 87.035,80.000 87.196,80.000 87.542 C 80.000 87.729,80.405 88.340,80.900 88.899 C 81.395 89.458,82.430 90.689,83.200 91.635 C 83.970 92.581,84.915 93.680,85.300 94.078 C 85.685 94.475,86.000 94.948,86.000 95.128 C 86.000 95.308,86.511 96.028,87.136 96.728 L 88.272 98.000 92.522 97.740 C 94.860 97.597,96.693 97.350,96.594 97.191 C 96.496 97.032,98.797 96.771,101.708 96.612 C 104.619 96.453,107.180 96.184,107.400 96.015 C 107.620 95.846,109.176 95.608,110.857 95.488 L 113.914 95.268 114.157 96.484 C 114.291 97.153,114.400 98.398,114.400 99.250 C 114.400 100.103,114.562 100.800,114.760 100.800 C 114.958 100.800,115.248 103.095,115.406 105.900 C 115.564 108.705,115.885 111.239,116.121 111.530 C 116.425 111.908,116.423 112.139,116.116 112.330 C 115.878 112.479,115.554 113.815,115.395 115.300 C 115.236 116.785,114.967 118.000,114.795 118.000 C 114.324 118.000,114.084 121.361,114.534 121.663 C 114.784 121.830,114.698 122.919,114.297 124.663 C 111.856 135.285,111.629 134.281,116.731 135.417 C 124.376 137.120,139.507 137.279,149.800 135.765 C 152.016 135.439,151.992 135.525,152.368 126.494 C 152.697 118.615,152.791 117.897,153.760 115.847 C 154.332 114.639,154.800 113.368,154.800 113.025 C 154.800 112.681,154.960 112.400,155.155 112.400 C 155.351 112.400,155.638 111.725,155.792 110.901 C 155.947 110.076,156.226 109.308,156.412 109.192 C 156.599 109.077,156.836 108.537,156.939 107.991 C 157.042 107.446,157.311 106.524,157.538 105.941 C 157.764 105.359,157.840 104.774,157.708 104.641 C 157.575 104.509,157.677 104.400,157.933 104.400 C 158.190 104.400,158.400 103.950,158.400 103.400 C 158.400 102.850,158.543 102.400,158.717 102.400 C 158.892 102.400,159.207 101.828,159.417 101.128 C 159.667 100.298,160.248 99.639,161.091 99.228 C 161.801 98.883,162.386 98.390,162.391 98.133 C 162.396 97.877,162.603 97.599,162.851 97.516 C 163.099 97.434,163.392 96.429,163.502 95.283 C 163.612 94.137,163.859 93.200,164.051 93.200 C 164.243 93.200,164.400 91.310,164.400 89.000 C 164.400 86.467,164.241 84.800,164.000 84.800 C 163.780 84.800,163.600 84.537,163.600 84.216 C 163.600 83.450,161.644 81.638,160.500 81.344 C 160.005 81.217,159.600 80.967,159.600 80.788 C 159.600 80.610,159.021 80.336,158.313 80.181 C 157.605 80.025,156.750 79.762,156.413 79.595 C 154.950 78.870,150.333 77.200,149.792 77.200 C 149.466 77.200,149.200 77.020,149.200 76.800 C 149.200 76.338,147.735 76.251,147.530 76.700 C 147.176 77.474,140.037 83.999,139.552 83.992 C 138.007 83.970,134.800 80.057,134.800 78.193 C 134.800 76.174,134.700 76.091,131.754 75.670 C 130.134 75.438,129.684 75.172,128.921 73.997 C 127.215 71.370,126.286 70.864,125.897 72.351 C 125.539 73.719,120.867 76.559,119.786 76.066 C 119.061 75.736,118.510 75.813,117.257 76.418 C 116.376 76.844,112.358 78.616,108.327 80.356 C 104.297 82.096,100.007 83.973,98.794 84.528 C 94.600 86.447,94.899 86.528,90.689 82.338 C 88.623 80.282,85.222 76.930,83.130 74.888 L 79.326 71.177 76.993 72.988 M249.543 168.293 C 244.487 172.131,240.828 175.002,235.989 178.927 C 235.225 179.547,234.909 179.959,235.287 179.844 C 237.651 179.124,239.461 183.988,238.518 188.527 C 237.697 192.483,237.971 195.309,239.314 196.709 C 240.411 197.853,241.273 198.343,245.702 200.341 C 249.584 202.092,250.005 203.864,247.995 210.000 C 246.413 214.830,247.455 217.354,252.942 221.974 C 257.514 225.824,258.252 227.395,256.779 230.143 C 255.499 232.533,256.004 232.635,259.014 230.596 C 266.638 225.432,268.445 220.541,265.100 214.121 C 263.144 210.366,263.100 208.341,264.883 204.072 C 267.174 198.583,266.571 196.072,261.660 190.666 C 257.940 186.571,257.666 185.061,259.843 180.667 C 261.047 178.235,261.172 169.476,259.992 170.205 C 259.823 170.309,259.567 169.923,259.422 169.346 C 259.277 168.769,258.673 167.804,258.080 167.201 C 257.486 166.599,256.614 165.617,256.143 165.019 L 255.286 163.933 249.543 168.293 M232.600 181.460 C 231.395 182.536,231.305 182.685,232.236 182.063 C 233.341 181.324,234.732 179.976,234.349 180.015 C 234.267 180.023,233.480 180.673,232.600 181.460 M216.379 197.455 C 216.158 198.036,216.052 198.585,216.143 198.676 C 216.233 198.767,216.499 198.292,216.733 197.620 C 217.253 196.128,216.939 195.982,216.379 197.455 M219.667 198.380 C 219.433 199.051,219.327 199.600,219.431 199.600 C 219.701 199.600,220.456 197.522,220.257 197.324 C 220.167 197.233,219.901 197.708,219.667 198.380 M218.444 201.644 C 218.198 202.351,218.066 203.000,218.152 203.085 C 218.238 203.171,218.509 202.662,218.756 201.956 C 219.002 201.249,219.134 200.600,219.048 200.515 C 218.962 200.429,218.691 200.938,218.444 201.644 M82.629 205.429 C 82.481 206.015,82.438 206.572,82.532 206.666 C 82.627 206.760,82.824 206.358,82.971 205.771 C 83.119 205.185,83.162 204.628,83.068 204.534 C 82.973 204.440,82.776 204.842,82.629 205.429 M211.179 211.855 C 210.958 212.436,210.852 212.985,210.943 213.076 C 211.033 213.167,211.299 212.692,211.533 212.020 C 212.053 210.528,211.739 210.382,211.179 211.855 M155.660 240.867 C 155.627 241.454,155.496 242.264,155.370 242.667 C 155.152 243.360,155.165 243.361,155.595 242.690 C 155.846 242.299,155.977 241.489,155.886 240.890 L 155.720 239.800 155.660 240.867 M153.775 244.900 L 152.600 246.200 153.900 245.025 C 155.112 243.930,155.384 243.600,155.075 243.600 C 155.006 243.600,154.421 244.185,153.775 244.900 M149.200 249.000 C 148.454 249.770,147.950 250.400,148.082 250.400 C 148.213 250.400,148.950 249.770,149.720 249.000 C 150.490 248.230,150.993 247.600,150.838 247.600 C 150.684 247.600,149.946 248.230,149.200 249.000 M137.519 250.698 C 139.344 250.772,142.224 250.772,143.919 250.697 C 145.614 250.622,144.120 250.561,140.600 250.562 C 137.080 250.562,135.694 250.624,137.519 250.698 " stroke="none" fill="#746cd3" fill-rule="evenodd"></path><path id="path6" d="M112.678 121.855 C 112.538 121.995,111.072 122.096,109.420 122.079 C 107.769 122.062,106.313 122.217,106.185 122.424 C 106.057 122.631,105.513 122.800,104.976 122.800 C 104.397 122.800,104.000 123.032,104.000 123.371 C 104.000 124.116,106.555 129.013,107.369 129.826 C 107.716 130.173,108.000 130.695,108.000 130.986 C 108.000 131.277,108.270 131.618,108.600 131.745 C 108.930 131.871,109.200 132.261,109.200 132.611 C 109.200 132.961,109.361 133.148,109.558 133.026 C 109.755 132.904,110.019 133.074,110.146 133.402 C 110.925 135.434,111.796 133.977,112.896 128.800 C 114.270 122.338,114.206 120.327,112.678 121.855 M116.100 156.687 C 116.705 156.778,117.695 156.778,118.300 156.687 C 118.905 156.595,118.410 156.520,117.200 156.520 C 115.990 156.520,115.495 156.595,116.100 156.687 M66.006 163.355 C 66.010 163.862,66.130 164.018,66.306 163.746 C 66.468 163.497,66.960 163.218,67.400 163.126 C 68.060 162.989,68.008 162.921,67.100 162.736 C 66.175 162.547,66.001 162.645,66.006 163.355 M70.400 162.800 C 70.400 163.289,76.262 163.289,77.400 162.800 C 77.923 162.575,76.851 162.447,74.300 162.428 C 71.948 162.411,70.400 162.559,70.400 162.800 M113.854 163.100 L 97.909 163.209 98.157 164.305 C 98.294 164.907,98.595 167.200,98.826 169.400 C 99.057 171.600,99.500 175.380,99.810 177.800 C 100.711 184.826,100.984 190.000,100.455 190.000 C 99.791 190.000,99.897 190.539,100.739 191.443 C 101.146 191.879,101.553 192.459,101.644 192.731 C 101.734 193.003,102.950 191.513,104.346 189.418 L 106.883 185.611 119.742 185.505 C 132.337 185.402,132.598 185.384,132.498 184.600 C 132.441 184.160,132.120 181.640,131.783 179.000 C 131.445 176.360,131.089 173.930,130.991 173.600 C 130.739 172.755,129.878 165.226,129.882 163.900 C 129.884 163.295,129.866 162.843,129.843 162.895 C 129.819 162.948,122.624 163.040,113.854 163.100 M64.831 168.431 C 64.585 169.578,64.460 170.593,64.553 170.686 C 64.646 170.779,64.923 169.917,65.169 168.769 C 65.415 167.622,65.540 166.607,65.447 166.514 C 65.354 166.421,65.077 167.283,64.831 168.431 M63.852 172.671 C 63.330 175.295,63.108 176.987,63.310 176.800 C 63.600 176.532,64.441 171.908,64.237 171.704 C 64.149 171.615,63.975 172.051,63.852 172.671 M62.652 179.071 C 62.130 181.695,61.908 183.387,62.110 183.200 C 62.400 182.932,63.241 178.308,63.037 178.104 C 62.949 178.015,62.775 178.451,62.652 179.071 M260.000 180.412 C 259.581 180.691,259.942 180.733,261.200 180.550 C 263.441 180.225,263.760 179.998,261.967 180.006 C 261.215 180.009,260.330 180.192,260.000 180.412 M343.587 181.700 C 344.016 182.195,344.658 182.960,345.014 183.400 C 345.856 184.443,345.284 183.320,344.250 181.900 C 343.810 181.295,343.305 180.800,343.127 180.800 C 342.950 180.800,343.157 181.205,343.587 181.700 M61.040 187.640 C 60.893 188.557,60.852 189.385,60.947 189.480 C 61.042 189.576,61.246 188.910,61.400 188.000 C 61.554 187.090,61.596 186.262,61.493 186.160 C 61.390 186.057,61.187 186.723,61.040 187.640 M298.200 192.400 C 297.130 192.672,297.108 192.705,298.000 192.705 C 298.550 192.705,299.540 192.568,300.200 192.400 C 301.270 192.128,301.292 192.095,300.400 192.095 C 299.850 192.095,298.860 192.232,298.200 192.400 M349.263 192.200 C 349.262 192.420,349.503 193.230,349.800 194.000 C 350.097 194.770,350.345 195.130,350.352 194.800 C 350.358 194.470,350.117 193.660,349.814 193.000 C 349.512 192.340,349.264 191.980,349.263 192.200 M59.822 193.822 C 59.672 194.625,59.628 195.362,59.726 195.460 C 59.824 195.557,60.027 194.981,60.178 194.178 C 60.328 193.375,60.372 192.638,60.274 192.540 C 60.176 192.443,59.973 193.019,59.822 193.822 M291.245 193.632 C 290.279 193.822,289.379 194.088,289.245 194.224 C 289.000 194.471,290.961 194.188,293.600 193.595 C 295.579 193.150,293.534 193.183,291.245 193.632 M285.600 194.800 C 284.233 195.088,284.228 195.095,285.400 195.119 C 286.060 195.133,286.960 194.989,287.400 194.800 C 288.362 194.387,287.564 194.387,285.600 194.800 M278.181 197.237 C 277.829 197.918,277.620 198.553,277.717 198.650 C 277.813 198.747,278.114 198.290,278.385 197.636 C 278.664 196.963,279.253 196.372,279.739 196.277 C 280.593 196.110,280.593 196.109,279.710 196.054 C 279.091 196.017,278.626 196.376,278.181 197.237 M351.058 198.400 C 351.375 200.125,351.602 200.451,351.594 199.167 C 351.591 198.635,351.411 197.930,351.194 197.600 C 350.918 197.178,350.877 197.415,351.058 198.400 M58.600 198.800 C 58.448 199.491,58.407 200.141,58.509 200.242 C 58.611 200.344,58.809 199.853,58.950 199.150 C 59.283 197.483,58.960 197.160,58.600 198.800 M276.779 200.255 C 276.558 200.836,276.452 201.385,276.543 201.476 C 276.633 201.567,276.899 201.092,277.133 200.420 C 277.653 198.928,277.339 198.782,276.779 200.255 M57.240 203.440 C 57.010 204.273,56.894 205.027,56.982 205.115 C 57.070 205.203,57.330 204.593,57.560 203.760 C 57.790 202.927,57.906 202.173,57.818 202.085 C 57.730 201.997,57.470 202.607,57.240 203.440 M275.579 203.055 C 275.358 203.636,275.252 204.185,275.343 204.276 C 275.433 204.367,275.699 203.892,275.933 203.220 C 276.453 201.728,276.139 201.582,275.579 203.055 M352.312 211.819 C 352.373 216.648,352.479 221.140,352.548 221.800 C 352.616 222.460,352.679 219.040,352.689 214.200 C 352.698 209.360,352.592 204.868,352.453 204.219 C 352.314 203.569,352.250 206.989,352.312 211.819 M56.044 207.244 C 55.798 207.951,55.666 208.600,55.752 208.685 C 55.838 208.771,56.109 208.262,56.356 207.556 C 56.602 206.849,56.734 206.200,56.648 206.115 C 56.562 206.029,56.291 206.538,56.044 207.244 M273.082 208.683 C 272.743 209.518,272.163 210.920,271.795 211.800 C 271.427 212.680,271.291 213.220,271.493 213.000 C 272.053 212.391,274.098 207.565,273.886 207.353 C 273.784 207.251,273.422 207.849,273.082 208.683 M54.865 210.217 C 54.195 211.688,54.323 212.002,55.047 210.665 C 55.386 210.040,55.588 209.454,55.496 209.363 C 55.405 209.271,55.121 209.656,54.865 210.217 M194.480 213.940 C 193.974 214.083,196.190 214.200,199.405 214.200 C 202.620 214.200,204.834 214.083,204.325 213.940 C 203.816 213.797,201.600 213.680,199.400 213.680 C 197.200 213.680,194.986 213.797,194.480 213.940 M270.444 214.844 C 270.198 215.551,270.066 216.200,270.152 216.285 C 270.238 216.371,270.509 215.862,270.756 215.156 C 271.002 214.449,271.134 213.800,271.048 213.715 C 270.962 213.629,270.691 214.138,270.444 214.844 M188.200 215.200 C 187.181 215.638,188.232 215.638,189.600 215.200 C 190.404 214.943,190.443 214.877,189.800 214.868 C 189.360 214.862,188.640 215.011,188.200 215.200 M184.576 216.622 C 183.812 217.234,183.813 217.238,184.600 216.876 C 185.040 216.674,185.670 216.408,186.000 216.286 C 186.518 216.093,186.515 216.059,185.976 216.032 C 185.634 216.014,185.004 216.280,184.576 216.622 M50.576 218.700 C 48.393 222.474,43.989 227.744,36.038 236.100 C 35.044 237.145,34.340 238.000,34.475 238.000 C 34.931 238.000,45.292 226.620,47.586 223.600 C 49.849 220.622,52.259 216.800,51.876 216.800 C 51.766 216.800,51.181 217.655,50.576 218.700 M179.701 219.300 C 178.993 219.795,178.411 220.366,178.407 220.570 C 178.403 220.773,178.895 220.506,179.500 219.976 C 180.105 219.446,180.771 218.874,180.980 218.706 C 181.813 218.035,180.911 218.454,179.701 219.300 M175.387 223.300 L 173.000 225.800 175.500 223.413 C 177.822 221.195,178.183 220.800,177.887 220.800 C 177.826 220.800,176.701 221.925,175.387 223.300 M105.060 222.670 C 105.312 222.851,105.611 223.450,105.723 224.000 C 105.899 224.861,105.918 224.838,105.863 223.831 C 105.828 223.171,105.538 222.591,105.200 222.500 C 104.799 222.393,104.752 222.449,105.060 222.670 M352.134 226.000 C 352.134 227.650,352.205 228.325,352.291 227.500 C 352.378 226.675,352.378 225.325,352.291 224.500 C 352.205 223.675,352.134 224.350,352.134 226.000 M265.400 226.661 C 265.064 227.465,264.882 228.215,264.995 228.328 C 265.108 228.441,265.200 228.435,265.200 228.316 C 265.200 228.196,265.472 227.446,265.805 226.649 C 266.138 225.852,266.321 225.200,266.211 225.200 C 266.101 225.200,265.736 225.858,265.400 226.661 M171.879 227.300 C 170.794 228.768,170.062 230.032,170.663 229.400 C 171.405 228.620,173.238 226.000,173.041 226.000 C 172.931 226.000,172.408 226.585,171.879 227.300 M230.000 228.400 C 230.470 229.060,230.944 229.600,231.054 229.600 C 231.164 229.600,230.870 229.060,230.400 228.400 C 229.930 227.740,229.456 227.200,229.346 227.200 C 229.236 227.200,229.530 227.740,230.000 228.400 M77.119 228.900 C 75.888 230.540,75.497 231.200,75.757 231.200 C 75.870 231.200,76.519 230.390,77.200 229.400 C 78.627 227.326,78.569 226.969,77.119 228.900 M263.789 230.257 C 262.689 232.835,262.412 233.600,262.581 233.600 C 262.857 233.600,264.822 229.088,264.629 228.896 C 264.529 228.796,264.151 229.408,263.789 230.257 M105.337 232.600 C 105.339 234.360,105.409 235.030,105.493 234.089 C 105.578 233.149,105.577 231.709,105.491 230.889 C 105.405 230.070,105.336 230.840,105.337 232.600 M74.550 232.700 C 73.367 234.325,73.002 235.152,73.977 234.000 C 74.878 232.934,75.719 231.600,75.489 231.600 C 75.413 231.600,74.990 232.095,74.550 232.700 M261.667 235.180 C 261.433 235.851,261.327 236.400,261.431 236.400 C 261.701 236.400,262.456 234.322,262.257 234.124 C 262.167 234.033,261.901 234.508,261.667 235.180 M352.229 238.200 C 352.331 240.180,352.585 242.340,352.793 243.000 C 353.111 244.010,353.136 243.911,352.950 242.370 C 352.829 241.363,352.576 239.203,352.387 237.570 L 352.044 234.600 352.229 238.200 M72.093 236.300 C 71.057 237.796,70.721 238.400,70.923 238.400 C 71.017 238.400,71.570 237.680,72.153 236.800 C 73.336 235.012,73.284 234.579,72.093 236.300 M104.743 236.500 C 104.664 236.775,104.699 239.970,104.819 243.600 L 105.039 250.200 105.119 243.100 C 105.194 236.537,105.117 235.190,104.743 236.500 M166.236 236.742 C 165.794 237.458,165.166 239.382,165.499 239.000 C 165.940 238.494,166.839 236.400,166.615 236.400 C 166.523 236.400,166.352 236.554,166.236 236.742 M260.465 237.817 C 259.795 239.288,259.923 239.602,260.647 238.265 C 260.986 237.640,261.188 237.054,261.096 236.963 C 261.005 236.871,260.721 237.256,260.465 237.817 M201.305 237.887 C 201.914 237.979,202.814 237.977,203.305 237.882 C 203.797 237.787,203.300 237.711,202.200 237.714 C 201.100 237.717,200.697 237.795,201.305 237.887 M31.486 241.500 C 30.304 242.985,28.936 244.830,28.446 245.600 L 27.556 247.000 28.478 245.834 C 32.573 240.657,33.983 238.800,33.822 238.800 C 33.719 238.800,32.668 240.015,31.486 241.500 M69.519 240.100 C 68.357 241.648,67.896 242.400,68.109 242.400 C 68.194 242.400,68.846 241.590,69.557 240.600 C 71.032 238.546,71.000 238.127,69.519 240.100 M259.265 240.617 C 258.595 242.088,258.723 242.402,259.447 241.065 C 259.786 240.440,259.988 239.854,259.896 239.763 C 259.805 239.671,259.521 240.056,259.265 240.617 M164.379 241.055 C 164.158 241.636,164.052 242.185,164.143 242.276 C 164.233 242.367,164.499 241.892,164.733 241.220 C 165.253 239.728,164.939 239.582,164.379 241.055 M258.065 243.417 C 257.395 244.888,257.523 245.202,258.247 243.865 C 258.586 243.240,258.788 242.654,258.696 242.563 C 258.605 242.471,258.321 242.856,258.065 243.417 M163.244 244.044 C 162.998 244.751,162.866 245.400,162.952 245.485 C 163.038 245.571,163.309 245.062,163.556 244.356 C 163.802 243.649,163.934 243.000,163.848 242.915 C 163.762 242.829,163.491 243.338,163.244 244.044 M236.493 245.200 C 236.493 245.970,236.575 246.285,236.676 245.900 C 236.776 245.515,236.776 244.885,236.676 244.500 C 236.575 244.115,236.493 244.430,236.493 245.200 M208.946 250.400 C 208.932 254.339,209.024 255.623,209.233 254.400 C 209.605 252.225,209.607 247.454,209.237 245.800 C 209.089 245.140,208.958 247.210,208.946 250.400 M353.448 246.200 C 353.591 246.860,353.866 247.670,354.059 248.000 C 354.284 248.384,354.318 248.168,354.152 247.400 C 354.009 246.740,353.734 245.930,353.541 245.600 C 353.316 245.216,353.282 245.432,353.448 246.200 M63.805 248.393 C 62.831 249.721,62.401 250.688,62.517 251.293 L 62.691 252.200 62.746 251.254 C 62.775 250.733,63.445 249.428,64.234 248.354 C 65.023 247.279,65.578 246.400,65.468 246.400 C 65.358 246.400,64.610 247.297,63.805 248.393 M162.046 247.639 C 161.801 248.343,161.613 249.118,161.628 249.360 C 161.644 249.602,161.914 249.096,162.230 248.235 C 162.545 247.374,162.733 246.600,162.648 246.515 C 162.562 246.429,162.292 246.935,162.046 247.639 M255.267 249.980 C 255.033 250.651,254.927 251.200,255.031 251.200 C 255.301 251.200,256.056 249.122,255.857 248.924 C 255.767 248.833,255.501 249.308,255.267 249.980 M354.829 250.310 C 355.076 251.020,355.442 251.703,355.642 251.826 C 355.842 251.950,355.791 251.544,355.527 250.925 C 354.821 249.265,354.306 248.812,354.829 250.310 M145.775 261.600 C 145.775 267.650,145.831 270.125,145.899 267.100 C 145.967 264.075,145.967 259.125,145.899 256.100 C 145.831 253.075,145.775 255.550,145.775 261.600 M160.650 252.450 C 160.317 254.117,160.640 254.440,161.000 252.800 C 161.152 252.109,161.193 251.459,161.091 251.358 C 160.989 251.256,160.791 251.747,160.650 252.450 M254.044 252.844 C 253.798 253.551,253.666 254.200,253.752 254.285 C 253.838 254.371,254.109 253.862,254.356 253.156 C 254.602 252.449,254.734 251.800,254.648 251.715 C 254.562 251.629,254.291 252.138,254.044 252.844 M326.600 253.219 C 326.042 253.471,326.285 253.507,327.400 253.338 C 328.280 253.204,329.075 253.028,329.167 252.947 C 329.510 252.644,327.368 252.871,326.600 253.219 M23.240 255.440 C 23.010 256.273,22.894 257.027,22.982 257.115 C 23.070 257.203,23.330 256.593,23.560 255.760 C 23.790 254.927,23.906 254.173,23.818 254.085 C 23.730 253.997,23.470 254.607,23.240 255.440 M357.896 255.400 C 358.350 256.060,359.229 257.050,359.850 257.600 C 360.599 258.264,360.459 257.996,359.432 256.800 C 357.336 254.357,356.915 253.974,357.896 255.400 M159.631 256.262 C 159.397 257.108,159.223 258.160,159.246 258.600 C 159.270 259.040,159.528 258.415,159.821 257.210 C 160.430 254.707,160.276 253.939,159.631 256.262 M62.094 263.400 C 62.049 267.800,62.153 271.622,62.325 271.893 C 62.566 272.271,67.584 272.411,83.899 272.493 C 95.593 272.552,105.027 272.467,104.864 272.304 C 104.701 272.141,95.125 271.961,83.584 271.904 L 62.600 271.800 62.387 263.600 L 62.175 255.400 62.094 263.400 M22.256 259.100 C 22.147 259.485,21.961 260.790,21.844 262.000 C 21.677 263.709,21.705 263.887,21.967 262.800 C 22.660 259.925,22.903 256.813,22.256 259.100 M362.913 260.554 C 365.080 262.593,368.000 264.961,368.000 264.681 C 368.000 264.578,366.425 263.203,364.500 261.625 C 362.575 260.047,361.861 259.565,362.913 260.554 M250.465 261.017 C 249.795 262.488,249.923 262.802,250.647 261.465 C 250.986 260.840,251.188 260.254,251.096 260.163 C 251.005 260.071,250.721 260.456,250.465 261.017 M158.276 262.410 C 158.130 262.955,158.027 263.850,158.046 264.400 C 158.071 265.118,158.184 264.957,158.449 263.827 C 158.855 262.095,158.700 260.825,158.276 262.410 M207.867 261.867 C 207.720 262.013,207.618 262.688,207.641 263.367 L 207.682 264.600 208.010 263.203 C 208.353 261.747,208.317 261.416,207.867 261.867 M330.880 262.600 C 330.880 263.040,331.024 263.850,331.200 264.400 C 331.454 265.192,331.520 265.233,331.520 264.600 C 331.520 264.160,331.376 263.350,331.200 262.800 C 330.946 262.008,330.880 261.967,330.880 262.600 M236.509 267.200 C 236.509 268.190,236.587 268.595,236.682 268.100 C 236.778 267.605,236.778 266.795,236.682 266.300 C 236.587 265.805,236.509 266.210,236.509 267.200 M371.000 267.061 C 373.062 269.127,376.839 272.408,375.600 271.056 C 374.830 270.216,373.300 268.793,372.200 267.894 C 371.100 266.995,370.560 266.620,371.000 267.061 M157.072 269.404 C 156.927 270.282,156.830 271.630,156.855 272.400 C 156.884 273.278,157.029 272.830,157.244 271.200 C 157.624 268.315,157.487 266.889,157.072 269.404 M206.649 268.615 C 206.512 268.973,206.416 269.656,206.436 270.133 C 206.462 270.747,206.585 270.608,206.859 269.656 C 207.257 268.272,207.094 267.458,206.649 268.615 M247.301 269.800 C 247.305 270.680,247.387 270.993,247.483 270.495 C 247.579 269.998,247.575 269.278,247.475 268.895 C 247.375 268.513,247.296 268.920,247.301 269.800 M21.868 273.400 C 21.994 274.720,22.248 276.070,22.431 276.400 C 22.793 277.049,22.527 274.740,21.972 272.400 C 21.733 271.397,21.704 271.680,21.868 273.400 M247.687 272.400 C 247.683 272.950,247.824 273.850,248.000 274.400 C 248.431 275.744,248.431 274.292,248.000 272.600 C 247.726 271.522,247.694 271.502,247.687 272.400 M136.100 272.294 C 137.145 272.376,138.855 272.376,139.900 272.294 C 140.945 272.212,140.090 272.144,138.000 272.144 C 135.910 272.144,135.055 272.212,136.100 272.294 M377.804 274.200 C 379.407 276.426,379.850 276.839,378.957 275.273 C 378.541 274.543,377.852 273.643,377.426 273.273 C 376.976 272.882,377.134 273.269,377.804 274.200 M205.457 274.700 C 205.348 275.085,205.155 276.030,205.028 276.800 C 204.738 278.549,205.360 277.221,205.730 275.300 C 205.993 273.934,205.795 273.499,205.457 274.700 M22.848 278.000 C 22.842 278.330,23.083 279.140,23.386 279.800 C 24.093 281.345,24.103 280.626,23.400 278.800 C 23.103 278.030,22.855 277.670,22.848 278.000 M248.895 278.400 C 248.895 278.950,249.032 279.940,249.200 280.600 C 249.472 281.670,249.505 281.692,249.505 280.800 C 249.505 280.250,249.368 279.260,249.200 278.600 C 248.928 277.530,248.895 277.508,248.895 278.400 M105.293 280.400 C 105.293 281.170,105.375 281.485,105.476 281.100 C 105.576 280.715,105.576 280.085,105.476 279.700 C 105.375 279.315,105.293 279.630,105.293 280.400 M204.293 279.473 C 204.189 279.653,204.001 280.520,203.874 281.400 L 203.643 283.000 204.217 281.229 C 204.733 279.636,204.776 278.631,204.293 279.473 M24.228 282.000 C 24.372 282.550,24.650 283.171,24.845 283.380 C 25.416 283.991,25.241 283.114,24.569 282.000 L 23.967 281.000 24.228 282.000 M156.120 283.600 C 156.120 284.810,156.195 285.305,156.287 284.700 C 156.378 284.095,156.378 283.105,156.287 282.500 C 156.195 281.895,156.120 282.390,156.120 283.600 M287.400 283.200 C 286.330 283.472,286.308 283.505,287.200 283.505 C 287.750 283.505,288.740 283.368,289.400 283.200 C 290.470 282.928,290.492 282.895,289.600 282.895 C 289.050 282.895,288.060 283.032,287.400 283.200 M105.314 285.000 C 105.317 286.100,105.395 286.503,105.487 285.895 C 105.579 285.286,105.577 284.386,105.482 283.895 C 105.387 283.403,105.311 283.900,105.314 285.000 M202.800 285.000 C 202.536 285.799,202.415 286.548,202.531 286.664 C 202.647 286.780,202.930 286.193,203.160 285.360 C 203.703 283.392,203.423 283.112,202.800 285.000 M250.087 284.800 C 250.091 285.350,250.232 286.340,250.400 287.000 L 250.705 288.200 250.713 287.000 C 250.717 286.340,250.576 285.350,250.400 284.800 L 250.080 283.800 250.087 284.800 M281.000 284.400 L 279.800 284.705 281.000 284.713 C 281.660 284.717,282.650 284.576,283.200 284.400 L 284.200 284.080 283.200 284.087 C 282.650 284.091,281.660 284.232,281.000 284.400 M275.200 285.600 C 273.816 285.891,273.814 285.895,275.000 285.941 C 275.660 285.967,276.470 285.813,276.800 285.600 C 277.466 285.170,277.245 285.170,275.200 285.600 M268.823 286.836 C 267.846 287.028,266.856 287.273,266.623 287.381 C 265.929 287.703,270.131 287.117,271.000 286.770 C 272.028 286.360,271.110 286.388,268.823 286.836 M262.823 288.036 C 260.227 288.545,259.895 288.814,262.200 288.539 C 263.300 288.408,264.470 288.148,264.800 287.962 C 265.513 287.561,265.186 287.573,262.823 288.036 M294.428 288.633 C 294.444 289.275,294.616 290.160,294.810 290.600 C 295.047 291.134,295.086 290.802,294.927 289.600 C 294.646 287.480,294.388 286.980,294.428 288.633 M201.400 289.200 C 201.250 289.673,201.217 290.150,201.327 290.260 C 201.437 290.370,201.650 290.073,201.800 289.600 C 201.950 289.127,201.983 288.650,201.873 288.540 C 201.763 288.430,201.550 288.727,201.400 289.200 M255.800 289.418 L 253.400 289.948 255.600 289.723 C 256.810 289.600,258.160 289.353,258.600 289.175 C 259.769 288.701,258.571 288.805,255.800 289.418 M105.272 290.867 C 105.179 293.286,107.018 293.106,84.754 292.882 C 61.711 292.650,62.499 292.524,59.763 296.859 C 58.102 299.490,59.320 303.600,61.760 303.600 C 62.112 303.600,62.400 303.743,62.400 303.919 C 62.400 304.359,68.062 305.650,71.100 305.902 C 72.973 306.057,73.600 305.981,73.600 305.598 C 73.600 305.201,74.342 305.148,76.900 305.361 C 78.715 305.512,80.380 305.621,80.600 305.602 C 80.820 305.583,83.790 305.406,87.200 305.207 C 90.610 305.008,95.200 304.651,97.400 304.412 C 99.945 304.136,106.055 304.065,114.200 304.215 C 121.240 304.346,137.170 304.530,149.600 304.624 C 194.195 304.963,219.822 305.475,220.850 306.047 C 221.600 306.465,226.925 306.609,246.086 306.731 C 266.226 306.859,270.451 306.980,270.835 307.442 C 271.425 308.153,272.967 308.163,273.551 307.459 C 273.910 307.027,275.403 306.957,280.900 307.113 C 302.522 307.725,309.717 307.326,309.927 305.500 C 309.996 304.895,310.200 304.400,310.380 304.400 C 310.560 304.400,310.797 304.054,310.908 303.631 C 311.519 301.293,313.167 301.075,331.077 300.959 C 340.379 300.899,347.869 300.689,348.277 300.476 C 348.675 300.269,350.215 299.972,351.700 299.818 C 353.185 299.663,354.400 299.399,354.400 299.231 C 354.400 299.064,355.083 298.722,355.918 298.472 C 357.542 297.985,360.017 295.963,360.758 294.517 C 361.646 292.782,360.695 292.689,343.231 292.813 C 323.951 292.949,324.907 292.985,324.676 292.100 C 324.502 291.433,324.491 291.433,324.446 292.100 C 324.404 292.745,323.580 292.807,313.900 292.887 C 298.217 293.018,298.315 293.019,296.691 292.752 C 295.831 292.611,295.076 292.677,294.934 292.906 C 294.711 293.267,201.353 293.089,200.995 292.726 C 200.926 292.657,198.829 292.737,196.335 292.904 C 190.654 293.284,191.948 293.280,173.200 292.972 C 162.072 292.789,157.313 292.577,157.106 292.256 C 156.917 291.963,156.810 292.044,156.806 292.484 C 156.799 293.259,144.918 293.658,137.250 293.140 C 135.132 292.997,127.155 292.862,119.522 292.840 L 105.644 292.800 105.494 290.900 L 105.344 289.000 105.272 290.867 M30.248 291.800 C 30.864 292.680,31.420 293.475,31.484 293.567 C 31.548 293.658,31.600 293.526,31.600 293.273 C 31.600 293.020,31.044 292.225,30.364 291.506 L 29.128 290.200 30.248 291.800 " stroke="none" fill="#a4d3fb" fill-rule="evenodd"></path><path id="path7" d="M101.352 59.045 C 101.236 59.509,101.216 60.499,101.307 61.245 C 101.461 62.514,101.476 62.494,101.536 60.935 L 101.600 59.270 104.100 58.906 L 106.600 58.543 104.082 58.371 C 101.780 58.215,101.545 58.273,101.352 59.045 M108.200 58.663 C 109.080 58.746,110.217 58.907,110.727 59.021 L 111.653 59.229 110.727 60.038 L 109.800 60.847 110.915 60.168 C 112.613 59.133,112.042 58.605,109.168 58.556 C 107.756 58.532,107.320 58.580,108.200 58.663 M119.751 58.880 C 119.642 59.056,121.173 59.200,123.153 59.200 C 125.133 59.200,126.835 59.065,126.935 58.900 C 127.035 58.735,125.504 58.591,123.533 58.580 C 121.562 58.568,119.860 58.703,119.751 58.880 M107.200 62.000 L 104.200 62.256 107.076 62.328 C 108.658 62.368,110.064 62.220,110.200 62.000 C 110.336 61.780,110.392 61.632,110.324 61.672 C 110.256 61.712,108.850 61.859,107.200 62.000 M134.093 249.200 C 134.093 249.970,134.175 250.285,134.276 249.900 C 134.376 249.515,134.376 248.885,134.276 248.500 C 134.175 248.115,134.093 248.430,134.093 249.200 " stroke="none" fill="#7a6e5c" fill-rule="evenodd"></path><path id="path8" d="M115.401 57.496 C 114.742 57.593,114.102 57.835,113.979 58.034 C 113.856 58.233,113.290 58.435,112.722 58.482 C 112.136 58.530,111.765 58.765,111.865 59.024 C 111.961 59.276,111.575 59.786,111.007 60.159 C 110.081 60.765,109.801 61.853,110.430 62.400 C 111.704 63.510,115.745 69.555,116.181 71.003 C 117.702 76.056,119.731 77.156,123.194 74.804 C 126.388 72.635,126.408 72.533,124.412 68.465 C 123.477 66.559,122.507 64.553,122.256 64.007 C 122.005 63.461,121.372 62.641,120.849 62.184 C 120.190 61.609,119.862 60.843,119.780 59.689 C 119.595 57.091,119.269 56.928,115.401 57.496 M136.400 57.865 C 134.530 58.175,131.895 58.355,130.543 58.264 C 127.155 58.036,127.062 58.137,127.379 61.651 C 127.525 63.273,127.769 66.523,127.922 68.873 C 128.267 74.171,128.883 75.256,131.783 75.673 C 134.697 76.091,134.800 76.177,134.800 78.193 C 134.800 80.057,138.007 83.970,139.552 83.992 C 140.004 83.999,146.613 78.001,147.697 76.600 C 148.105 76.073,147.959 72.000,147.532 72.000 C 146.722 72.000,147.205 67.576,148.184 66.025 C 149.702 63.621,149.863 59.991,148.451 60.002 C 147.309 60.011,145.758 62.139,145.206 64.457 C 144.073 69.211,142.560 67.661,141.493 60.653 C 140.924 56.919,141.196 57.068,136.400 57.865 M122.691 58.689 C 123.401 58.777,124.661 58.779,125.491 58.692 C 126.321 58.605,125.740 58.533,124.200 58.531 C 122.660 58.529,121.981 58.600,122.691 58.689 M72.057 60.931 C 71.814 61.224,71.470 62.169,71.292 63.031 C 71.002 64.438,70.831 64.613,69.636 64.729 C 68.282 64.860,67.871 67.958,69.103 68.749 C 69.317 68.887,69.621 69.414,69.780 69.920 C 69.938 70.427,70.547 71.346,71.133 71.963 C 71.720 72.581,72.398 73.426,72.641 73.843 C 73.483 75.289,76.151 74.201,79.472 71.057 C 79.512 71.019,79.177 69.731,78.728 68.194 C 78.279 66.657,77.822 64.910,77.712 64.311 C 77.256 61.822,73.286 59.450,72.057 60.931 " stroke="none" fill="#faa364" fill-rule="evenodd"></path></g></svg>