<?xml version="1.0" standalone="no"?>
<!DOCTYPE svg PUBLIC "-//W3C//DTD SVG 20010904//EN"
 "http://www.w3.org/TR/2001/REC-SVG-20010904/DTD/svg10.dtd">
<svg version="1.0"
    xmlns="http://www.w3.org/2000/svg" width="512.000000pt" height="512.000000pt" viewBox="0 0 512.000000 512.000000" preserveAspectRatio="xMidYMid meet">
    <metadata>
Created by potrace 1.16, written by Peter Selinger 2001-2019
    </metadata>
    <g transform="translate(0.000000,512.000000) scale(0.100000,-0.100000)" fill="#513474" stroke="none">
        <path d="M2360 5093 c-199 -80 -341 -240 -433 -485 -43 -114 -77 -302 -80
-443 l-2 -99 40 -8 c22 -4 257 -7 522 -7 l483 -1 -6 -47 c-22 -180 -111 -325
-218 -355 -23 -6 -76 -11 -118 -11 -63 0 -87 5 -132 27 -59 29 -130 100 -173
173 -14 24 -32 43 -42 43 -9 0 -39 -21 -67 -47 -27 -27 -76 -71 -108 -99 -54
-47 -57 -53 -46 -74 24 -45 82 -116 152 -187 90 -90 177 -135 305 -158 85 -16
100 -16 195 -1 314 50 481 249 568 676 29 140 39 340 18 358 -11 9 -131 12
-484 14 l-469 3 1 100 c1 127 25 195 89 254 66 60 100 71 229 71 98 0 118 -3
166 -26 30 -14 72 -41 92 -61 l37 -36 90 78 c50 43 91 82 91 88 0 23 -76 119
-134 168 -33 29 -92 67 -131 85 -69 34 -69 34 -220 34 -138 -1 -155 -3 -215
-27z"/>
        <path d="M1690 4976 c-171 -59 -357 -155 -556 -285 -291 -192 -579 -497 -768
-815 -112 -187 -246 -495 -232 -531 5 -13 116 -15 838 -15 458 0 839 4 846 8
9 7 12 48 10 173 l-3 164 -45 7 c-25 3 -273 7 -552 7 l-507 1 9 29 c8 27 50
93 121 186 16 22 69 83 117 135 214 234 459 406 757 530 110 46 110 46 117 85
10 60 9 300 -2 329 -12 34 -31 33 -150 -8z"/>
        <path d="M3336 4994 c-8 -20 -8 -1638 0 -1658 9 -24 319 -24 328 0 3 9 6 258
6 555 0 445 2 539 13 539 19 0 125 -70 223 -146 91 -71 312 -295 376 -381 125
-169 215 -328 287 -510 24 -60 38 -83 54 -87 29 -8 341 -8 361 0 22 9 20 28
-13 125 -175 509 -567 1004 -1032 1303 -128 83 -351 197 -473 242 -102 38
-121 41 -130 18z"/>
        <path d="M4063 3250 l-23 -9 0 -511 0 -510 -48 0 c-88 0 -243 63 -299 122 -51
52 -66 100 -66 203 0 143 45 220 177 300 36 22 65 46 66 53 0 14 -196 232
-209 232 -14 0 -150 -100 -194 -142 -185 -180 -228 -449 -112 -703 35 -77 124
-176 210 -235 61 -42 188 -96 282 -120 134 -35 459 -75 484 -59 12 7 15 88 17
490 l4 482 101 -6 c130 -6 188 -27 248 -87 64 -64 83 -123 77 -248 -5 -113
-29 -180 -84 -233 -19 -18 -34 -37 -34 -42 0 -12 47 -73 93 -121 20 -22 37
-44 37 -48 0 -18 46 -6 91 23 85 54 164 158 213 279 22 53 26 79 26 159 -1
244 -139 459 -384 596 -117 65 -275 110 -461 130 -149 17 -181 17 -212 5z"/>
        <path d="M790 3235 c-13 -15 -15 -89 -18 -474 -1 -251 -2 -462 -2 -470 0 -10
-22 -12 -107 -10 -94 4 -116 8 -165 32 -117 58 -163 147 -156 305 5 113 29
180 84 233 19 18 34 38 34 43 0 6 -22 37 -49 69 -28 31 -59 71 -71 87 -12 17
-27 30 -34 30 -24 0 -140 -94 -178 -145 -96 -125 -128 -211 -128 -340 0 -268
180 -508 474 -632 127 -53 293 -88 470 -99 96 -6 120 -4 127 7 5 8 9 235 9
506 0 270 3 498 6 507 18 48 239 -16 329 -95 58 -52 78 -106 79 -215 0 -79 -4
-99 -28 -147 -30 -62 -99 -130 -170 -168 -26 -13 -45 -30 -44 -38 4 -17 178
-217 197 -225 22 -10 118 59 207 149 59 59 90 100 114 151 125 261 49 574
-182 748 -87 65 -157 98 -293 137 -128 37 -241 56 -380 65 -99 6 -112 5 -125
-11z"/>
        <path d="M2543 2899 c-21 -8 -23 -14 -23 -90 l0 -82 -58 -59 -59 -58 -71 0
c-92 0 -102 -5 -102 -46 0 -43 21 -54 106 -54 l67 0 59 -58 58 -59 0 -74 c0
-82 9 -99 51 -99 34 0 39 14 39 102 l0 71 58 59 59 58 77 0 c93 0 116 10 116
50 0 39 -23 50 -110 50 -71 0 -71 0 -121 47 -65 61 -79 89 -79 160 0 78 -19
100 -67 82z"/>
        <path d="M153 1814 c-30 -13 1 -124 90 -321 202 -446 514 -812 940 -1102 155
-106 490 -267 580 -279 l37 -5 0 841 0 840 -64 7 c-93 10 -242 3 -258 -13 -10
-10 -14 -129 -18 -553 l-5 -540 -63 33 c-115 60 -321 237 -458 393 -131 151
-295 421 -364 600 -39 102 -34 100 -233 102 -94 1 -178 0 -184 -3z"/>
        <path d="M2452 1800 c-255 -46 -411 -206 -506 -521 -37 -124 -70 -358 -64
-459 l3 -55 476 -3 476 -2 7 -48 c15 -118 -31 -274 -97 -325 -68 -52 -89 -57
-219 -57 -140 0 -177 12 -246 75 -23 20 -48 35 -56 33 -22 -5 -176 -139 -176
-154 0 -18 68 -101 133 -162 32 -29 88 -68 129 -87 l72 -35 151 0 c170 0 201
8 326 82 125 75 238 217 307 388 77 187 126 561 78 592 -6 4 -239 8 -518 8
l-507 0 6 38 c28 193 84 297 190 348 74 37 193 40 265 7 62 -28 130 -93 175
-165 20 -32 43 -58 51 -58 8 0 41 24 72 53 32 28 78 69 104 90 29 25 46 46 46
60 -1 30 -66 118 -151 203 -89 90 -178 137 -304 158 -105 19 -92 19 -223 -4z"/>
        <path d="M3312 1778 c-15 -15 -17 -305 -2 -328 8 -13 85 -16 560 -20 l550 -5
-24 -45 c-74 -138 -285 -376 -456 -513 -169 -136 -399 -269 -595 -344 l-50
-19 -3 -192 c-3 -225 -8 -216 102 -184 82 24 314 125 399 174 473 272 818 629
1059 1098 78 152 163 363 153 380 -10 16 -1677 14 -1693 -2z"/>
    </g>
</svg>
